<svg width="1440" height="1024" viewBox="0 0 1440 1024" fill="none" xmlns="http://www.w3.org/2000/svg">
<g clip-path="url(#clip0)">
<path opacity="0.68" d="M18.986 32.0395C21.4631 28.7324 20.8416 23.9855 17.6006 21.458C14.3595 18.9304 9.7074 19.5646 7.2303 22.8717C4.75321 26.1787 5.37474 30.9256 8.61578 33.4532C11.8568 35.9807 16.5089 35.3465 18.986 32.0395ZM10.7648 25.6281C11.7524 24.3095 13.6072 24.0567 14.8993 25.0643C16.1914 26.072 16.4392 27.9645 15.4515 29.2831C14.4639 30.6016 12.6092 30.8545 11.3171 29.8468C10.025 28.8391 9.77717 26.9466 10.7648 25.6281Z" fill="#8A8A8A" fill-opacity="0.15"/>
<g opacity="0.35">
<path d="M97.1748 584.091C97.0485 581.679 96.27 579.044 94.9568 576.801C94.1131 575.362 92.8309 574.117 91.248 573.2C88.7627 571.758 86.1567 571.76 83.6391 571.762C81.7603 571.763 79.9853 571.765 78.3335 571.175L78.0381 571.07C77.0649 570.726 75.964 570.335 75.4332 569.742C74.8973 569.141 73.9802 569.073 73.3489 569.553C72.7125 570.046 72.5663 570.945 73.0157 571.615L88.2401 594.304C86.7392 594.373 85.1587 594.857 83.72 595.823C80.211 598.177 78.8865 602.379 80.7712 605.187C82.6559 607.996 87.0457 608.363 90.5547 606.008C94.0637 603.654 95.388 599.453 93.5034 596.644L83.5451 581.803C85.9479 581.251 90.3264 581.012 94.1039 584.782C94.1024 585.126 94.1205 585.483 94.0789 585.807C93.9667 586.646 94.5575 587.417 95.3982 587.525C96.2371 587.641 97.0042 587.046 97.1165 586.206C97.198 585.59 97.1968 584.933 97.1693 584.265C97.176 584.208 97.1785 584.151 97.1748 584.091Z" fill="#8A8A8A" fill-opacity="0.25"/>
</g>
<path d="M1093.35 466.445C1092.15 464.346 1090.27 462.341 1088.09 460.926C1086.69 460.018 1084.99 459.481 1083.16 459.372C1080.29 459.199 1077.97 460.37 1075.72 461.501C1074.04 462.345 1072.45 463.144 1070.71 463.357L1070.4 463.396C1069.38 463.525 1068.22 463.67 1067.48 463.378C1066.73 463.082 1065.88 463.433 1065.53 464.144C1065.18 464.871 1065.46 465.74 1066.16 466.137L1089.94 479.581C1088.63 480.316 1087.44 481.459 1086.59 482.967C1084.51 486.646 1085.21 490.995 1088.15 492.659C1091.1 494.323 1095.19 492.681 1097.27 489.002C1099.35 485.323 1098.64 480.975 1095.7 479.31L1080.14 470.517C1082.04 468.945 1085.84 466.767 1090.91 468.44C1091.07 468.749 1091.24 469.06 1091.35 469.367C1091.63 470.168 1092.5 470.591 1093.3 470.311C1094.1 470.038 1094.52 469.162 1094.24 468.361C1094.04 467.774 1093.74 467.187 1093.42 466.602C1093.4 466.549 1093.38 466.497 1093.35 466.445Z" fill="#8A8A8A" fill-opacity="0.15"/>
<g opacity="0.15" clip-path="url(#clip1)">
<path d="M723.99 58.7629C723.493 58.9678 723.257 59.5361 723.462 60.0337C723.667 60.5304 724.236 60.7676 724.733 60.5625C725.23 60.3576 725.467 59.7877 725.262 59.291C725.057 58.7937 724.488 58.5575 723.99 58.7629Z" fill="#8A8A8A"/>
<path d="M702.899 77.2708C703.228 76.8442 703.147 76.2329 702.721 75.9055C702.295 75.5772 701.684 75.6571 701.357 76.083C701.028 76.5093 701.107 77.1207 701.534 77.449C701.96 77.7766 702.572 77.6967 702.899 77.2708Z" fill="#8A8A8A"/>
<path d="M730.856 51.9707C729.971 49.6067 728.876 47.5851 727.52 45.8131C723.586 40.6724 717.773 37.4193 711.151 36.653C704.698 35.9061 698.142 37.6461 692.936 41.6304C682.27 49.7924 679.747 65.407 687.935 76.1058C689.291 77.8781 690.956 79.4637 693.007 80.9361C692.727 82.0368 693.109 83.2486 694.054 83.9776L701.77 89.9131C703.041 90.893 704.875 90.6668 705.866 89.3805L707.749 86.9325C708.896 87.306 710.199 86.9409 710.972 85.9385L713.346 82.8513C714.328 81.5751 714.089 79.7376 712.813 78.7561L702.01 70.4443C700.734 69.4624 698.895 69.7023 697.914 70.9786L695.54 74.0642C695.29 74.3894 695.119 74.7509 695.025 75.1252C694.32 74.5235 693.677 73.883 693.101 73.2069C693.752 72.2802 693.82 71.0407 693.198 70.0394C688.832 63.0129 690.838 53.0432 697.669 47.8158C704.5 42.5883 714.648 43.2579 720.289 49.3082C721.093 50.1705 722.307 50.4289 723.372 50.0421C723.874 50.7752 724.324 51.5628 724.721 52.4005C724.334 52.3942 723.941 52.4641 723.562 52.6205L719.963 54.1059C718.474 54.7205 717.762 56.4312 718.377 57.92L723.576 70.5191C724.191 72.0076 725.901 72.7187 727.39 72.1045L730.991 70.6189C732.156 70.1373 732.853 68.9778 732.792 67.7687L735.648 66.5908C737.153 65.9678 737.842 64.2524 737.232 62.7769L733.518 53.776C733.062 52.6732 731.989 51.9878 730.856 51.9707ZM697.083 75.2518L699.457 72.1656C699.784 71.7397 700.397 71.6601 700.823 71.9872L711.625 80.2992C712.05 80.6265 712.13 81.2385 711.803 81.6642L711.209 82.4359L705.808 78.2794C705.382 77.9515 704.771 78.031 704.443 78.457C704.115 78.8834 704.194 79.4946 704.621 79.8226L710.022 83.9792L709.429 84.7507C709.101 85.1755 708.489 85.2553 708.063 84.9283C708.063 84.928 708.062 84.9277 708.062 84.9277L697.26 76.6169C696.835 76.29 696.755 75.6774 697.083 75.2518ZM706.104 85.8777L704.323 88.1924C703.996 88.6177 703.386 88.6998 702.957 88.3702L695.242 82.4348C694.839 82.1238 694.742 81.5502 695.026 81.1215C695.039 81.1015 695.054 81.0817 695.064 81.0687L696.819 78.7865C697.476 79.1768 696.077 78.2017 706.104 85.8777ZM690.093 75.6798L691.64 74.4954C692.651 75.676 693.838 76.7554 695.184 77.7183L694.003 79.2542C692.471 78.1401 691.181 76.9606 690.093 75.6798ZM721.713 47.98C715.25 41.0487 704.04 40.4883 696.486 46.2693C688.927 52.0535 686.545 63.0204 691.544 71.0671C691.792 71.4664 691.682 72.0122 691.292 72.3101L688.908 74.1348C682.225 64.5066 684.494 50.5421 694.119 43.1766C703.744 35.8112 717.816 37.271 725.363 46.2379L722.978 48.0628C722.589 48.3603 722.033 48.3241 721.713 47.98ZM726.545 47.7852C727.496 49.1706 728.298 50.7238 728.973 52.4938L727.182 53.2328C726.604 51.6808 725.872 50.2533 724.997 48.9696L726.545 47.7852ZM730.775 67.5472C730.775 67.5472 730.775 67.5472 730.775 67.5475C730.98 68.0436 730.742 68.6143 730.248 68.819L729.347 69.1904L726.747 62.8906C726.542 62.3933 725.972 62.1569 725.475 62.362C724.978 62.5672 724.742 63.1366 724.947 63.6334L727.547 69.9331L726.647 70.3041C726.151 70.5088 725.581 70.2719 725.376 69.7761L720.176 57.1769C720.005 56.7612 720.143 56.2934 720.485 56.032C720.551 55.9815 720.625 55.9387 720.705 55.9054L724.304 54.4201C724.801 54.2151 725.372 54.4518 725.576 54.9476L730.775 67.5472ZM731.719 54.5196L735.432 63.52C735.638 64.0188 735.399 64.5867 734.904 64.7911L732.204 65.9047C727.413 54.2156 727.991 55.8259 727.785 55.0899C730.621 53.9207 730.454 53.9867 730.515 53.9669C730.996 53.8074 731.525 54.0507 731.719 54.5196Z" fill="#8A8A8A"/>
</g>
<g opacity="0.8" clip-path="url(#clip2)">
<g opacity="0.5">
<path opacity="0.5" d="M1258.47 281.369C1258.74 280.947 1258.61 280.388 1258.19 280.119C1257.77 279.85 1257.21 279.975 1256.94 280.397C1256.67 280.819 1256.79 281.38 1257.22 281.649C1257.64 281.917 1258.2 281.792 1258.47 281.369Z" fill="#8A8A8A"/>
<path opacity="0.5" d="M1264.61 255.983C1264.59 256.483 1264.98 256.906 1265.48 256.927C1265.98 256.948 1266.4 256.561 1266.42 256.061C1266.45 255.56 1266.06 255.137 1265.56 255.116C1265.06 255.094 1264.63 255.483 1264.61 255.983Z" fill="#8A8A8A"/>
<path opacity="0.5" d="M1256.88 290.218C1258.82 291.544 1260.73 292.497 1262.71 293.119C1268.46 294.927 1274.63 294.29 1280.08 291.328C1285.4 288.44 1289.46 283.604 1291.29 277.783C1295.04 265.856 1288.59 252.616 1276.63 248.855C1274.65 248.232 1272.53 247.917 1270.18 247.894C1269.81 246.906 1268.87 246.188 1267.76 246.139L1258.7 245.752C1257.21 245.687 1255.93 246.841 1255.87 248.352L1255.75 251.224C1254.67 251.554 1253.88 252.53 1253.82 253.706L1253.67 257.329C1253.61 258.826 1254.77 260.097 1256.27 260.161L1268.95 260.704C1270.44 260.768 1271.71 259.601 1271.78 258.104L1271.93 254.483C1271.95 254.101 1271.89 253.735 1271.76 253.399C1272.62 253.48 1273.45 253.623 1274.25 253.829C1274.25 254.884 1274.86 255.864 1275.87 256.293C1282.96 259.305 1286.77 267.97 1284.37 275.608C1281.97 283.246 1273.88 288.171 1266.35 286.586C1265.27 286.36 1264.21 286.813 1263.61 287.678C1262.83 287.389 1262.07 287.03 1261.32 286.605C1261.62 286.403 1261.88 286.139 1262.08 285.817L1264.03 282.758C1264.83 281.493 1264.46 279.809 1263.19 279.005L1252.49 272.197C1251.22 271.393 1249.54 271.767 1248.73 273.032L1246.79 276.092C1246.16 277.082 1246.25 278.338 1246.94 279.226L1245.4 281.653C1244.59 282.933 1244.98 284.608 1246.24 285.405L1253.88 290.269C1254.82 290.864 1256 290.812 1256.88 290.218ZM1270.12 254.405L1269.97 258.026C1269.95 258.526 1269.52 258.914 1269.02 258.893L1256.35 258.35C1255.85 258.329 1255.46 257.905 1255.48 257.406L1255.52 256.5L1261.86 256.773C1262.36 256.794 1262.78 256.406 1262.8 255.906C1262.82 255.406 1262.44 254.983 1261.94 254.962L1255.6 254.69L1255.64 253.784C1255.66 253.286 1256.08 252.897 1256.58 252.918C1256.58 252.918 1256.58 252.918 1256.58 252.918L1269.26 253.46C1269.76 253.482 1270.14 253.905 1270.12 254.405ZM1257.56 251.146L1257.68 248.43C1257.7 247.931 1258.12 247.541 1258.62 247.563L1267.68 247.95C1268.15 247.971 1268.53 248.356 1268.55 248.835C1268.55 248.857 1268.55 248.88 1268.54 248.895L1268.43 251.573C1267.72 251.627 1269.31 251.62 1257.56 251.146ZM1275.22 250.336L1274.67 252.066C1273.27 251.708 1271.79 251.522 1270.25 251.51L1270.32 249.708C1272.09 249.736 1273.7 249.943 1275.22 250.336ZM1265.98 288.359C1274.61 290.176 1283.44 284.599 1286.1 276.152C1288.76 267.7 1284.7 258.074 1276.58 254.625C1276.18 254.453 1275.97 253.979 1276.11 253.544L1276.95 250.877C1287.19 254.629 1292.94 266.476 1289.56 277.239C1286.17 288.001 1274.68 294.426 1264.13 291.641L1264.97 288.974C1265.1 288.54 1265.55 288.269 1265.98 288.359ZM1262.4 291.095C1260.93 290.551 1259.49 289.797 1258.03 288.811L1259 287.289C1260.27 288.161 1261.59 288.856 1262.95 289.365L1262.4 291.095ZM1248.6 278.315C1248.6 278.315 1248.6 278.315 1248.6 278.315C1248.17 278.046 1248.05 277.485 1248.32 277.064L1248.8 276.299L1254.16 279.703C1254.58 279.972 1255.14 279.847 1255.41 279.424C1255.68 279.002 1255.55 278.442 1255.13 278.173L1249.78 274.77L1250.26 274.005C1250.53 273.584 1251.09 273.458 1251.51 273.726L1262.22 280.534C1262.57 280.759 1262.72 281.189 1262.6 281.571C1262.58 281.645 1262.54 281.717 1262.5 281.786L1260.55 284.844C1260.29 285.266 1259.72 285.392 1259.3 285.124L1248.6 278.315ZM1254.86 288.739L1247.21 283.875C1246.78 283.606 1246.66 283.045 1246.93 282.625L1248.39 280.331C1258.3 286.665 1256.99 285.748 1257.54 286.198C1256.01 288.607 1256.1 288.468 1256.07 288.516C1255.79 288.894 1255.25 288.992 1254.86 288.739Z" fill="#8A8A8A"/>
</g>
</g>
<g opacity="0.8" clip-path="url(#clip3)">
<g opacity="0.5">
<path opacity="0.5" d="M342.432 416.814C342.079 416.459 341.506 416.457 341.151 416.81C340.796 417.162 340.793 417.736 341.146 418.092C341.499 418.447 342.073 418.448 342.428 418.096C342.783 417.743 342.785 417.169 342.432 416.814Z" fill="#8A8A8A"/>
<path opacity="0.5" d="M319.022 405.227C319.506 405.358 320.003 405.072 320.134 404.589C320.265 404.106 319.98 403.609 319.497 403.478C319.014 403.346 318.516 403.631 318.385 404.115C318.254 404.598 318.54 405.096 319.022 405.227Z" fill="#8A8A8A"/>
<path opacity="0.5" d="M350.713 420.314C352.433 418.714 353.785 417.054 354.829 415.259C357.858 410.05 358.596 403.893 356.906 397.922C355.26 392.103 351.438 387.078 346.162 384.01C335.354 377.726 321.021 381.093 314.717 391.934C313.673 393.73 312.899 395.726 312.359 398.014C311.312 398.163 310.405 398.921 310.113 399.993L307.741 408.739C307.349 410.181 308.194 411.679 309.653 412.076L312.427 412.828C312.512 413.947 313.289 414.939 314.426 415.249L317.925 416.197C319.371 416.59 320.868 415.732 321.26 414.285L324.582 402.04C324.974 400.593 324.116 399.096 322.669 398.705L319.172 397.756C318.803 397.656 318.431 397.637 318.076 397.689C318.344 396.868 318.667 396.088 319.044 395.352C320.073 395.584 321.164 395.203 321.805 394.313C326.304 388.063 335.595 386.253 342.517 390.278C349.439 394.303 352.462 403.274 349.256 410.275C348.799 411.272 349.007 412.409 349.718 413.188C349.265 413.88 348.747 414.547 348.166 415.186C348.035 414.851 347.835 414.537 347.566 414.267L345.011 411.696C343.954 410.633 342.229 410.627 341.166 411.684L332.167 420.628C331.104 421.684 331.099 423.409 332.155 424.472L334.711 427.044C335.539 427.876 336.784 428.065 337.803 427.583L339.829 429.623C340.9 430.698 342.62 430.683 343.674 429.634L350.103 423.245C350.89 422.461 351.1 421.295 350.713 420.314ZM318.697 399.505L322.195 400.454C322.678 400.584 322.963 401.083 322.833 401.566L319.511 413.81C319.38 414.293 318.881 414.578 318.399 414.448L317.524 414.21L319.186 408.088C319.317 407.605 319.032 407.107 318.549 406.976C318.065 406.845 317.568 407.13 317.437 407.613L315.775 413.736L314.901 413.499C314.419 413.368 314.133 412.869 314.263 412.387C314.264 412.386 314.264 412.386 314.264 412.386L317.585 400.141C317.715 399.659 318.214 399.374 318.697 399.505ZM312.751 411.037L310.128 410.326C309.645 410.195 309.358 409.699 309.49 409.214L311.862 400.468C311.987 400.011 312.446 399.724 312.916 399.817C312.937 399.821 312.96 399.826 312.974 399.831L315.561 400.532C315.458 401.235 315.801 399.685 312.751 411.037ZM315.849 393.641L317.417 394.553C316.76 395.841 316.252 397.245 315.901 398.746L314.16 398.274C314.575 396.56 315.133 395.032 315.849 393.641ZM350.904 411.029C354.577 403.008 351.083 393.162 343.428 388.711C335.769 384.257 325.486 386.097 320.334 393.253C320.078 393.609 319.569 393.707 319.175 393.478L316.759 392.073C322.675 382.907 335.498 379.906 345.251 385.577C355.003 391.248 358.738 403.877 353.698 413.553L351.282 412.148C350.888 411.919 350.722 411.427 350.904 411.029ZM352.785 415.119C351.931 416.429 350.878 417.67 349.594 418.879L348.323 417.599C349.454 416.551 350.423 415.415 351.217 414.207L352.785 415.119ZM337.278 425.769C337.278 425.769 337.278 425.769 337.278 425.769C336.923 426.121 336.348 426.119 335.996 425.766L335.357 425.123L339.857 420.65C340.212 420.297 340.214 419.724 339.861 419.368C339.508 419.014 338.934 419.012 338.579 419.365L334.08 423.837L333.441 423.194C333.089 422.84 333.091 422.265 333.445 421.913L342.444 412.969C342.741 412.674 343.193 412.627 343.539 412.828C343.605 412.867 343.669 412.916 343.726 412.973L346.281 415.544C346.633 415.898 346.632 416.474 346.278 416.825L337.278 425.769ZM348.825 421.96L342.396 428.349C342.04 428.703 341.466 428.698 341.115 428.345L339.198 426.416C347.559 418.147 346.378 419.215 346.939 418.777C348.951 420.803 348.835 420.683 348.874 420.729C349.181 421.085 349.16 421.627 348.825 421.96Z" fill="#8A8A8A"/>
</g>
</g>
<g opacity="0.8" clip-path="url(#clip4)">
<g opacity="0.5">
<path opacity="0.5" d="M171.942 922.129C172.353 921.844 172.455 921.28 172.169 920.868C171.884 920.457 171.319 920.355 170.908 920.641C170.497 920.927 170.395 921.492 170.68 921.903C170.967 922.314 171.531 922.415 171.942 922.129Z" fill="#8A8A8A"/>
<path opacity="0.5" d="M187.423 901.091C187.21 901.545 187.405 902.084 187.858 902.297C188.311 902.51 188.85 902.316 189.063 901.863C189.277 901.41 189.083 900.87 188.629 900.657C188.177 900.444 187.636 900.639 187.423 901.091Z" fill="#8A8A8A"/>
<path opacity="0.5" d="M167.056 929.675C168.332 931.648 169.732 933.267 171.318 934.608C175.921 938.496 181.856 940.294 188.029 939.668C194.046 939.059 199.659 936.168 203.597 931.507C211.665 921.956 210.842 907.256 201.262 899.163C199.675 897.822 197.844 896.713 195.685 895.784C195.72 894.727 195.131 893.702 194.127 893.227L185.927 889.371C184.575 888.734 182.953 889.306 182.308 890.673L181.085 893.275C179.968 893.164 178.856 893.756 178.354 894.822L176.811 898.103C176.173 899.459 176.758 901.082 178.114 901.72L189.595 907.12C190.951 907.758 192.575 907.173 193.212 905.817L194.755 902.537C194.917 902.192 195 901.829 195.011 901.47C195.773 901.876 196.485 902.33 197.144 902.83C196.736 903.803 196.922 904.943 197.688 905.729C203.06 911.246 203.226 920.711 198.059 926.828C192.892 932.944 183.532 934.361 177.195 929.986C176.292 929.363 175.137 929.37 174.246 929.935C173.643 929.368 173.076 928.742 172.548 928.06C172.901 927.988 173.245 927.846 173.558 927.628L176.534 925.559C177.765 924.703 178.07 923.006 177.215 921.775L169.972 911.358C169.116 910.127 167.419 909.822 166.188 910.678L163.21 912.747C162.248 913.418 161.845 914.611 162.142 915.698L159.781 917.339C158.536 918.206 158.252 919.903 159.102 921.123L164.275 928.565C164.91 929.477 166.022 929.886 167.056 929.675ZM193.115 901.766L191.572 905.046C191.36 905.498 190.819 905.693 190.366 905.48L178.886 900.08C178.434 899.867 178.239 899.326 178.451 898.874L178.837 898.054L184.578 900.755C185.03 900.968 185.57 900.774 185.783 900.321C185.996 899.868 185.802 899.328 185.349 899.115L179.608 896.414L179.994 895.594C180.206 895.142 180.748 894.947 181.2 895.16C181.2 895.16 181.201 895.16 181.201 895.16L192.681 900.56C193.133 900.772 193.328 901.313 193.115 901.766ZM182.792 893.905L183.948 891.446C184.161 890.993 184.7 890.797 185.155 891.011L193.355 894.867C193.783 895.07 193.986 895.572 193.813 896.018C193.805 896.039 193.796 896.06 193.789 896.074L192.649 898.499C191.974 898.275 193.441 898.883 182.792 893.905ZM199.385 899.981L198.214 901.367C197.06 900.495 195.765 899.751 194.349 899.144L195.116 897.512C196.731 898.219 198.139 899.034 199.385 899.981ZM176.166 931.478C183.426 936.49 193.729 934.762 199.444 927.997C205.161 921.229 205.138 910.783 198.986 904.465C198.681 904.151 198.672 903.633 198.967 903.284L200.77 901.149C208.768 908.569 209.494 921.719 202.213 930.337C194.932 938.955 181.846 940.437 173.195 933.791L174.999 931.656C175.293 931.308 175.805 931.229 176.166 931.478ZM171.811 932.62C170.669 931.55 169.631 930.298 168.663 928.824L170.145 927.794C170.98 929.09 171.93 930.242 172.982 931.234L171.811 932.62ZM164.02 915.497C164.02 915.497 164.02 915.497 164.02 915.497C163.735 915.086 163.837 914.52 164.246 914.235L164.99 913.718L168.612 918.926C168.898 919.338 169.463 919.439 169.874 919.153C170.284 918.867 170.386 918.302 170.1 917.892L166.478 912.683L167.223 912.166C167.633 911.881 168.199 911.982 168.484 912.392L175.727 922.81C175.965 923.153 175.933 923.606 175.675 923.912C175.625 923.971 175.566 924.025 175.499 924.071L172.524 926.14C172.113 926.426 171.547 926.325 171.262 925.915L164.02 915.497ZM165.763 927.53L160.59 920.088C160.302 919.676 160.407 919.112 160.816 918.827L163.049 917.275C169.738 926.947 168.891 925.598 169.225 926.226C166.88 927.855 167.019 927.762 166.967 927.792C166.562 928.033 166.033 927.918 165.763 927.53Z" fill="#8A8A8A"/>
</g>
</g>
<g opacity="0.32" clip-path="url(#clip5)">
<path d="M334.32 147.783C336.618 144.726 338.348 140.728 339.028 136.659C339.463 134.048 339.166 131.223 338.169 128.487C336.605 124.19 333.427 121.522 330.357 118.944C328.065 117.021 325.9 115.205 324.487 112.795L324.233 112.366C323.396 110.951 322.453 109.348 322.408 108.084C322.366 106.806 321.317 105.783 320.06 105.718C318.783 105.665 317.69 106.608 317.557 107.881L313.047 151.028C311.147 149.574 308.728 148.543 305.993 148.241C299.322 147.504 293.437 151.248 292.878 156.589C292.32 161.931 297.297 166.874 303.968 167.611C310.639 168.347 316.525 164.603 317.083 159.262L320.033 131.04C323.523 132.831 329.103 137.028 329.875 145.475C329.523 145.891 329.182 146.344 328.803 146.694C327.812 147.598 327.749 149.139 328.664 150.132C329.568 151.133 331.109 151.195 332.099 150.291C332.825 149.626 333.491 148.828 334.137 147.988C334.202 147.927 334.263 147.86 334.32 147.783Z" fill="#8A8A8A" fill-opacity="0.25"/>
</g>
<g opacity="0.32" clip-path="url(#clip6)">
<path d="M1282.56 967.824C1285.05 970.729 1288.58 973.284 1292.4 974.828C1294.86 975.818 1297.68 976.139 1300.57 975.758C1305.1 975.162 1308.39 972.637 1311.58 970.197C1313.95 968.376 1316.19 966.656 1318.85 965.798L1319.32 965.643C1320.89 965.132 1322.66 964.558 1323.9 964.788C1325.16 965.024 1326.38 964.221 1326.72 963.008C1327.05 961.772 1326.36 960.502 1325.15 960.096L1284 946.353C1285.83 944.813 1287.36 942.674 1288.25 940.069C1290.41 933.716 1288.03 927.16 1282.94 925.458C1277.84 923.757 1271.94 927.546 1269.78 933.9C1267.61 940.253 1269.99 946.809 1275.09 948.511L1302 957.5C1299.5 960.52 1294.19 965.059 1285.78 963.984C1285.45 963.55 1285.08 963.119 1284.82 962.673C1284.15 961.51 1282.66 961.115 1281.49 961.793C1280.32 962.459 1279.93 963.95 1280.6 965.113C1281.09 965.965 1281.72 966.788 1282.4 967.601C1282.45 967.678 1282.5 967.752 1282.56 967.824Z" fill="#8A8A8A" fill-opacity="0.25"/>
</g>
<g opacity="0.35" clip-path="url(#clip7)">
<path d="M1430.55 79.9318C1434.35 79.09 1438.32 77.1644 1441.53 74.5038C1443.59 72.7951 1445.22 70.4499 1446.25 67.7197C1447.87 63.4327 1447.16 59.3417 1446.48 55.3894C1445.97 52.4399 1445.49 49.6535 1445.98 46.9025L1446.06 46.4107C1446.35 44.7909 1446.67 42.958 1447.47 41.9664C1448.28 40.9646 1448.14 39.5067 1447.21 38.6433C1446.25 37.7758 1444.78 37.7864 1443.84 38.6707L1411.92 68.6295C1411.4 66.2915 1410.2 63.9392 1408.28 61.9381C1403.59 57.0571 1396.56 56.099 1392.61 59.8077C1388.66 63.5164 1389.26 70.5066 1393.95 75.3875C1398.64 80.2685 1405.67 81.2265 1409.62 77.5178L1430.5 57.9217C1432.03 61.5468 1433.59 68.3578 1428.62 75.2947C1428.08 75.3842 1427.51 75.5081 1426.99 75.529C1425.62 75.5769 1424.56 76.7102 1424.61 78.059C1424.66 79.4072 1425.81 80.4526 1427.17 80.4047C1428.17 80.3684 1429.22 80.1913 1430.27 79.9698C1430.36 79.9651 1430.45 79.9538 1430.55 79.9318Z" fill="#8A8A8A" fill-opacity="0.2"/>
</g>
<g clip-path="url(#clip8)">
<path d="M1038.17 809.329C1040.52 808.801 1042.99 807.592 1044.98 805.921C1046.26 804.848 1047.27 803.375 1047.91 801.661C1048.92 798.969 1048.48 796.401 1048.05 793.919C1047.74 792.067 1047.44 790.317 1047.74 788.59L1047.8 788.281C1047.97 787.264 1048.18 786.113 1048.67 785.491C1049.17 784.862 1049.09 783.946 1048.51 783.404C1047.92 782.859 1047 782.866 1046.42 783.421L1026.6 802.233C1026.28 800.764 1025.54 799.287 1024.35 798.031C1021.44 794.966 1017.07 794.365 1014.62 796.693C1012.17 799.022 1012.54 803.411 1015.45 806.476C1018.36 809.541 1022.72 810.142 1025.18 807.813L1038.14 795.509C1039.09 797.785 1040.06 802.062 1036.97 806.418C1036.63 806.474 1036.28 806.552 1035.96 806.565C1035.11 806.595 1034.45 807.306 1034.49 808.153C1034.51 809 1035.23 809.656 1036.07 809.626C1036.69 809.603 1037.34 809.492 1038 809.353C1038.05 809.35 1038.11 809.343 1038.17 809.329Z" fill="#8A8A8A" fill-opacity="0.15"/>
</g>
<g opacity="0.15" clip-path="url(#clip9)">
<path d="M268.788 795.388C268.401 793.004 267.342 790.469 265.794 788.381C264.799 787.042 263.39 785.943 261.717 785.203C259.09 784.039 256.499 784.323 253.997 784.597C252.129 784.802 250.365 784.996 248.659 784.588L248.354 784.516C247.349 784.279 246.212 784.01 245.62 783.478C245.023 782.939 244.104 782.971 243.528 783.515C242.949 784.075 242.901 784.985 243.42 785.602L261.012 806.508C259.527 806.739 258.009 807.392 256.683 808.508C253.45 811.228 252.588 815.548 254.766 818.137C256.943 820.725 261.347 820.614 264.581 817.893C267.814 815.173 268.675 810.853 266.498 808.264L254.991 794.59C257.32 793.78 261.647 793.069 265.81 796.407C265.846 796.749 265.903 797.103 265.896 797.429C265.876 798.276 266.546 798.978 267.394 798.994C268.24 799.019 268.938 798.343 268.959 797.496C268.973 796.875 268.901 796.223 268.801 795.561C268.802 795.504 268.798 795.448 268.788 795.388Z" fill="#8A8A8A" fill-opacity="0.25"/>
</g>
<g opacity="0.15" clip-path="url(#clip10)">
<path d="M1301.98 646.406C1301.22 646.429 1300.65 645.581 1300.97 644.894C1301.32 644.002 1302.63 644.002 1302.98 644.894C1303.3 645.581 1302.73 646.429 1301.98 646.406Z" fill="#8A8A8A"/>
<path d="M1286.36 653.236C1286.08 653.236 1285.8 653.129 1285.59 652.916L1279.93 647.256C1279.5 646.829 1279.5 646.136 1279.93 645.709C1280.36 645.282 1281.05 645.282 1281.48 645.709L1287.14 651.369C1287.56 651.796 1287.56 652.488 1287.14 652.916C1286.92 653.129 1286.64 653.236 1286.36 653.236Z" fill="#8A8A8A"/>
<path d="M1287.79 648.371C1287.51 648.371 1287.23 648.264 1287.02 648.05L1284.8 645.826C1284.37 645.399 1284.37 644.707 1284.8 644.28C1285.22 643.853 1285.91 643.853 1286.34 644.28L1288.57 646.504C1288.99 646.931 1288.99 647.623 1288.57 648.05C1288.35 648.264 1288.07 648.371 1287.79 648.371Z" fill="#8A8A8A"/>
<path d="M1324 614.183C1324 613.893 1323.88 613.615 1323.68 613.41L1319.43 609.166C1319.01 608.739 1318.31 608.739 1317.89 609.166L1316.33 610.727L1315.87 610.275C1315.45 609.848 1314.75 609.848 1314.33 610.275C1313.9 610.703 1313.9 611.395 1314.33 611.822L1314.78 612.274L1313.95 613.108L1313.49 612.656C1313.07 612.229 1312.37 612.229 1311.95 612.656C1311.52 613.083 1311.52 613.775 1311.95 614.203L1312.4 614.655L1303.58 623.479C1299.29 620.827 1294.99 620.881 1292.19 623.677C1291.4 624.47 1290.8 625.249 1290.38 626.057C1288.8 629.016 1285.29 631.676 1282.21 632.245C1279.91 632.669 1277.83 633.711 1276.2 635.258C1274.09 637.252 1272.94 639.853 1272.89 642.78C1272.81 646.706 1274.72 650.955 1278.12 654.436C1281.55 657.949 1285.78 659.977 1289.73 660C1289.75 660 1289.78 660 1289.8 660C1292.71 660 1295.32 658.922 1297.36 656.879C1299.04 655.207 1300.15 653.05 1300.6 650.641C1300.66 650.317 1300.74 649.981 1300.85 649.645C1301.04 649.069 1300.72 648.454 1300.14 648.27C1299.57 648.087 1298.95 648.405 1298.77 648.98C1298.63 649.404 1298.53 649.829 1298.45 650.244C1298.08 652.215 1297.17 653.975 1295.82 655.332C1294.19 656.955 1292.11 657.812 1289.8 657.812C1289.78 657.812 1289.76 657.812 1289.74 657.812C1286.38 657.793 1282.71 656.005 1279.68 652.907C1276.69 649.842 1275.01 646.167 1275.07 642.822C1275.12 640.495 1276.03 638.429 1277.7 636.847C1279.03 635.591 1280.72 634.744 1282.6 634.396C1286.34 633.707 1290.42 630.631 1292.31 627.084C1292.63 626.47 1293.1 625.862 1293.74 625.225C1296.38 622.589 1299.97 623.956 1301.97 625.08L1293.02 634.037C1291.36 633.957 1289.68 634.549 1288.41 635.812C1287.26 636.963 1286.63 638.494 1286.63 640.123C1286.63 641.751 1287.26 643.282 1288.41 644.433C1289.56 645.585 1291.09 646.219 1292.72 646.219C1294.35 646.219 1295.88 645.585 1297.03 644.433C1298.3 643.17 1298.89 641.486 1298.81 639.828L1307.76 630.88C1308.87 632.899 1310.19 636.537 1307.43 639.306C1306.96 639.776 1306.42 640.177 1305.83 640.498C1305.54 640.66 1305.24 640.84 1304.95 641.035C1304.44 641.368 1304.3 642.046 1304.64 642.55C1304.85 642.869 1305.19 643.041 1305.55 643.041C1305.76 643.041 1305.97 642.983 1306.15 642.86C1306.4 642.699 1306.64 642.55 1306.88 642.417C1307.65 641.996 1308.36 641.47 1308.97 640.853C1310.61 639.211 1311.4 637.097 1311.24 634.739C1311.12 632.967 1310.47 631.094 1309.36 629.276L1318.19 620.446L1318.83 621.088C1319.05 621.301 1319.33 621.408 1319.61 621.408C1319.89 621.408 1320.17 621.301 1320.38 621.088C1320.81 620.661 1320.81 619.968 1320.38 619.541L1319.74 618.899L1320.57 618.066L1321.21 618.708C1321.43 618.921 1321.71 619.028 1321.99 619.028C1322.27 619.028 1322.55 618.921 1322.76 618.708C1323.19 618.281 1323.19 617.588 1322.76 617.161L1322.12 616.519L1323.68 614.957C1323.88 614.752 1324 614.473 1324 614.183ZM1295.49 642.887C1294.75 643.625 1293.77 644.031 1292.72 644.031C1291.68 644.031 1290.7 643.625 1289.96 642.887C1288.43 641.362 1288.43 638.883 1289.96 637.359C1290.72 636.597 1291.72 636.216 1292.72 636.216C1293.72 636.216 1294.72 636.597 1295.49 637.359C1297.01 638.883 1297.01 641.363 1295.49 642.887ZM1298.17 637.377C1297.88 636.812 1297.5 636.283 1297.03 635.812C1297.03 635.812 1297.03 635.812 1297.03 635.812C1296.56 635.341 1296.03 634.964 1295.47 634.679L1311.57 618.582L1314.26 621.279L1298.17 637.377ZM1315.81 619.733L1313.11 617.035L1313.95 616.202L1316.64 618.899L1315.81 619.733ZM1318.19 617.352L1315.49 614.655L1316.33 613.821L1319.02 616.519L1318.19 617.352ZM1317.87 612.274L1318.66 611.486L1321.36 614.184L1320.57 614.972L1317.87 612.274Z" fill="#8A8A8A"/>
<path d="M1283.98 612.7C1283.98 612.348 1283.81 612.017 1283.52 611.811C1283.24 611.606 1282.87 611.551 1282.53 611.664L1273.96 614.566C1273.52 614.716 1273.22 615.133 1273.22 615.602V623.87C1272.76 623.661 1272.24 623.545 1271.7 623.545C1269.66 623.545 1268 625.207 1268 627.249C1268 629.291 1269.66 630.952 1271.7 630.952C1273.75 630.952 1275.41 629.291 1275.41 627.249C1275.41 627.185 1275.41 616.386 1275.41 616.386L1281.79 614.225V620.968C1281.33 620.76 1280.81 620.643 1280.27 620.643C1278.23 620.643 1276.57 622.305 1276.57 624.347C1276.57 626.389 1278.23 628.051 1280.27 628.051C1282.32 628.051 1283.98 626.389 1283.98 624.347C1283.98 624.283 1283.98 612.7 1283.98 612.7ZM1271.7 628.765C1270.87 628.765 1270.19 628.085 1270.19 627.249C1270.19 626.413 1270.87 625.733 1271.7 625.733C1272.54 625.733 1273.22 626.413 1273.22 627.249C1273.22 628.085 1272.54 628.765 1271.7 628.765ZM1280.27 625.863C1279.44 625.863 1278.76 625.183 1278.76 624.347C1278.76 623.511 1279.44 622.831 1280.27 622.831C1281.11 622.831 1281.79 623.511 1281.79 624.347C1281.79 625.183 1281.11 625.863 1280.27 625.863Z" fill="#8A8A8A"/>
<path d="M1318.98 642.482L1315.29 641.232C1314.96 641.119 1314.59 641.174 1314.3 641.379C1314.02 641.585 1313.85 641.915 1313.85 642.268V650.536C1313.38 650.327 1312.87 650.211 1312.33 650.211C1310.29 650.211 1308.63 651.872 1308.63 653.915C1308.63 655.957 1310.29 657.618 1312.33 657.618C1314.37 657.618 1316.03 655.957 1316.03 653.915C1316.03 653.851 1316.03 653.657 1316.03 653.623V643.793L1318.28 644.554C1318.85 644.748 1319.48 644.441 1319.67 643.869C1319.86 643.297 1319.56 642.676 1318.98 642.482ZM1312.33 655.431C1311.49 655.431 1310.81 654.751 1310.81 653.915C1310.81 653.079 1311.49 652.399 1312.33 652.399C1313.17 652.399 1313.85 653.079 1313.85 653.915C1313.85 654.751 1313.17 655.431 1312.33 655.431Z" fill="#8A8A8A"/>
<path d="M1297.9 615.769C1297.68 615.769 1297.47 615.705 1297.28 615.578C1296.51 615.052 1292.61 612.355 1291.71 610.949C1291.32 610.336 1290.8 609.364 1290.89 607.999C1291.03 605.733 1292.89 603.976 1295.11 604C1296.36 604.014 1297.35 604.677 1298.01 605.297C1298.68 604.7 1299.68 604.062 1300.87 604.062C1300.88 604.062 1300.89 604.062 1300.9 604.063C1303.13 604.087 1304.94 605.882 1305.04 608.151C1305.1 609.515 1304.56 610.477 1304.16 611.082C1303.21 612.48 1299.27 615.084 1298.49 615.591C1298.31 615.71 1298.11 615.769 1297.9 615.769ZM1295.07 606.188C1294.03 606.188 1293.14 607.059 1293.07 608.139C1293.04 608.711 1293.17 609.182 1293.55 609.765C1293.99 610.444 1296.19 612.14 1297.91 613.354C1299.66 612.181 1301.89 610.536 1302.34 609.861C1302.73 609.284 1302.88 608.816 1302.85 608.245C1302.81 607.156 1301.92 606.261 1300.88 606.25C1300.01 606.243 1299.07 607.292 1298.86 607.574C1298.65 607.867 1298.31 608.036 1297.95 608.029C1297.59 608.02 1297.25 607.833 1297.06 607.53C1296.82 607.163 1295.98 606.197 1295.09 606.188C1295.08 606.187 1295.07 606.188 1295.07 606.188Z" fill="#8A8A8A"/>
</g>
<g opacity="0.15" clip-path="url(#clip11)">
<path d="M813.938 935.746C813.874 934.994 814.691 934.382 815.393 934.656C816.304 934.965 816.374 936.266 815.503 936.672C814.833 937.02 813.956 936.5 813.938 935.746V935.746Z" fill="#8A8A8A"/>
<path d="M806.274 920.525C806.259 920.246 806.35 919.961 806.552 919.736L811.897 913.778C812.3 913.329 812.992 913.291 813.442 913.695C813.891 914.098 813.929 914.79 813.525 915.239L808.18 921.197C807.777 921.646 807.085 921.684 806.636 921.28C806.411 921.079 806.289 920.805 806.274 920.525Z" fill="#8A8A8A"/>
<path d="M811.209 921.69C811.194 921.41 811.286 921.125 811.487 920.9L813.588 918.559C813.991 918.11 814.683 918.072 815.132 918.476C815.582 918.879 815.619 919.571 815.216 920.02L813.116 922.361C812.712 922.811 812.021 922.848 811.571 922.445C811.346 922.243 811.224 921.969 811.209 921.69Z" fill="#8A8A8A"/>
<path d="M847.305 955.995C847.595 955.98 847.866 955.85 848.06 955.634L852.068 951.165C852.471 950.716 852.434 950.024 851.984 949.621L850.341 948.146L850.768 947.67C851.171 947.221 851.133 946.529 850.684 946.126C850.234 945.722 849.543 945.76 849.139 946.209L848.712 946.685L847.835 945.898L848.262 945.422C848.665 944.973 848.628 944.281 848.178 943.878C847.729 943.474 847.037 943.512 846.634 943.961L846.207 944.437L836.919 936.103C839.334 931.683 839.048 927.39 836.104 924.749C835.27 923.999 834.46 923.447 833.63 923.062C830.591 921.652 827.744 918.288 827.009 915.239C826.461 912.969 825.309 910.95 823.675 909.4C821.571 907.404 818.912 906.402 815.986 906.504C812.061 906.639 807.922 908.773 804.63 912.358C801.307 915.976 799.511 920.312 799.702 924.254C799.703 924.277 799.704 924.299 799.705 924.322C799.863 927.226 801.081 929.779 803.232 931.709C804.991 933.287 807.206 934.287 809.635 934.602C809.962 934.644 810.301 934.71 810.644 934.799C811.228 934.952 811.825 934.601 811.977 934.016C812.13 933.432 811.779 932.834 811.194 932.682C810.764 932.57 810.333 932.486 809.915 932.432C807.927 932.175 806.121 931.362 804.692 930.08C802.983 928.547 802.015 926.515 801.89 924.203C801.889 924.185 801.888 924.166 801.887 924.148C801.724 920.786 803.311 917.028 806.241 913.838C809.139 910.682 812.719 908.805 816.062 908.69C818.388 908.609 820.5 909.404 822.17 910.988C823.496 912.246 824.434 913.893 824.883 915.752C825.773 919.446 829.065 923.355 832.709 925.047C833.34 925.339 833.972 925.774 834.643 926.377C837.417 928.866 836.247 932.53 835.233 934.592L825.805 926.132C825.795 924.472 825.113 922.823 823.783 921.629C822.571 920.542 821.008 919.991 819.382 920.08C817.756 920.168 816.262 920.884 815.174 922.096C814.087 923.307 813.536 924.87 813.624 926.497C813.713 928.123 814.429 929.617 815.641 930.705C816.97 931.897 818.684 932.397 820.335 932.228L829.754 940.679C827.799 941.899 824.237 943.419 821.322 940.804C820.828 940.361 820.398 939.848 820.046 939.28C819.869 938.993 819.673 938.704 819.462 938.421C819.102 937.935 818.417 937.834 817.932 938.193C817.625 938.421 817.472 938.778 817.491 939.132C817.502 939.339 817.572 939.545 817.705 939.724C817.879 939.959 818.041 940.197 818.187 940.432C818.649 941.177 819.212 941.85 819.862 942.433C821.59 943.983 823.743 944.651 826.089 944.365C827.852 944.15 829.688 943.403 831.442 942.194L840.737 950.534L840.131 951.209C839.929 951.434 839.838 951.719 839.853 951.999C839.868 952.278 839.99 952.552 840.215 952.754C840.664 953.157 841.356 953.119 841.759 952.67L842.365 951.995L843.243 952.782L842.636 953.457C842.435 953.682 842.343 953.967 842.358 954.247C842.374 954.526 842.495 954.8 842.72 955.002C843.17 955.405 843.861 955.367 844.265 954.918L844.871 954.242L846.515 955.718C846.731 955.911 847.015 956.011 847.305 955.995ZM817.102 929.076C816.324 928.379 815.865 927.421 815.809 926.378C815.752 925.336 816.105 924.333 816.803 923.556C818.242 921.952 820.718 921.818 822.322 923.257C823.124 923.977 823.559 924.956 823.613 925.955C823.667 926.955 823.341 927.975 822.621 928.777C821.182 930.381 818.706 930.515 817.102 929.076ZM822.748 931.454C823.296 931.139 823.805 930.734 824.25 930.238C824.25 930.238 824.25 930.238 824.25 930.238C824.694 929.743 825.043 929.193 825.296 928.614L842.24 943.817L839.693 946.657L822.748 931.454ZM841.321 948.118L843.869 945.279L844.746 946.066L842.198 948.905L841.321 948.118ZM843.826 950.366L846.374 947.527L847.251 948.314L844.704 951.153L843.826 950.366ZM848.88 949.774L849.71 950.519L847.162 953.359L846.332 952.614L848.88 949.774Z" fill="#8A8A8A"/>
<path d="M846.621 915.952C846.973 915.933 847.295 915.746 847.484 915.448C847.674 915.151 847.709 914.781 847.578 914.454L844.217 906.052C844.043 905.617 843.61 905.341 843.142 905.366L834.886 905.813C835.069 905.34 835.158 904.821 835.128 904.282C835.018 902.243 833.269 900.674 831.23 900.784C829.191 900.894 827.622 902.643 827.732 904.683C827.842 906.722 829.591 908.291 831.631 908.181C831.694 908.177 842.477 907.593 842.477 907.593L844.98 913.85L838.247 914.215C838.43 913.741 838.519 913.222 838.489 912.683C838.379 910.644 836.63 909.075 834.591 909.185C832.552 909.296 830.983 911.045 831.093 913.084C831.203 915.123 832.952 916.692 834.992 916.582C835.055 916.579 846.621 915.952 846.621 915.952ZM829.916 904.564C829.871 903.729 830.513 903.014 831.348 902.968C832.183 902.923 832.899 903.566 832.944 904.4C832.989 905.235 832.347 905.951 831.512 905.996C830.678 906.042 829.962 905.399 829.916 904.564ZM833.277 912.966C833.232 912.131 833.875 911.415 834.709 911.37C835.544 911.325 836.26 911.967 836.305 912.802C836.35 913.637 835.708 914.352 834.873 914.398C834.038 914.443 833.323 913.8 833.277 912.966Z" fill="#8A8A8A"/>
<path d="M818.776 952.517L819.825 948.761C819.92 948.421 819.845 948.057 819.624 947.782C819.404 947.507 819.064 947.356 818.712 947.375L810.456 947.822C810.64 947.348 810.728 946.829 810.699 946.29C810.588 944.251 808.839 942.682 806.8 942.792C804.761 942.903 803.192 944.652 803.302 946.691C803.413 948.73 805.162 950.299 807.201 950.189C807.264 950.185 807.458 950.175 807.492 950.173L817.308 949.641L816.669 951.929C816.506 952.51 816.847 953.114 817.428 953.276C818.01 953.439 818.613 953.099 818.776 952.517ZM805.487 946.573C805.441 945.738 806.084 945.022 806.918 944.977C807.753 944.931 808.469 945.574 808.514 946.409C808.56 947.243 807.917 947.959 807.082 948.005C806.248 948.05 805.532 947.407 805.487 946.573Z" fill="#8A8A8A"/>
<path d="M844.31 930.018C844.299 929.802 844.35 929.584 844.467 929.392C844.951 928.593 847.433 924.557 848.788 923.577C849.379 923.15 850.321 922.585 851.69 922.598C853.961 922.621 855.815 924.379 855.911 926.597C855.965 927.844 855.356 928.871 854.772 929.56C855.405 930.2 856.096 931.162 856.16 932.35C856.161 932.362 856.161 932.374 856.162 932.386C856.258 934.605 854.563 936.516 852.303 936.735C850.944 936.867 849.955 936.386 849.329 936.012C847.882 935.148 845.069 931.355 844.52 930.604C844.392 930.429 844.321 930.225 844.31 930.018V930.018ZM853.724 926.672C853.668 925.641 852.75 924.797 851.668 924.786C851.095 924.78 850.632 924.943 850.07 925.35C849.415 925.823 847.841 928.113 846.722 929.901C847.988 931.579 849.751 933.716 850.45 934.134C851.047 934.49 851.522 934.613 852.091 934.558C853.176 934.453 854.021 933.521 853.976 932.481C853.936 931.61 852.838 930.726 852.545 930.539C852.241 930.344 852.054 930.013 852.042 929.65C852.031 929.289 852.199 928.946 852.491 928.734C852.845 928.471 853.764 927.586 853.725 926.692C853.725 926.685 853.725 926.679 853.724 926.672V926.672Z" fill="#8A8A8A"/>
</g>
<g opacity="0.15" clip-path="url(#clip12)">
<path d="M389.916 657.468C389.162 657.492 388.596 656.643 388.907 655.956C389.265 655.064 390.567 655.064 390.926 655.956C391.237 656.643 390.67 657.492 389.916 657.468Z" fill="#8A8A8A"/>
<path d="M374.304 664.298C374.024 664.298 373.744 664.192 373.53 663.978L367.871 658.318C367.444 657.891 367.444 657.199 367.871 656.772C368.298 656.344 368.991 656.344 369.418 656.772L375.077 662.431C375.504 662.858 375.504 663.551 375.077 663.978C374.864 664.192 374.584 664.298 374.304 664.298Z" fill="#8A8A8A"/>
<path d="M375.734 659.433C375.454 659.433 375.174 659.326 374.96 659.113L372.736 656.889C372.309 656.462 372.309 655.769 372.736 655.342C373.163 654.915 373.856 654.915 374.283 655.342L376.507 657.566C376.934 657.993 376.934 658.686 376.507 659.113C376.293 659.326 376.013 659.433 375.734 659.433Z" fill="#8A8A8A"/>
<path d="M411.941 625.246C411.941 624.956 411.826 624.677 411.621 624.472L407.376 620.228C406.948 619.801 406.256 619.801 405.829 620.228L404.267 621.79L403.815 621.338C403.388 620.911 402.696 620.911 402.269 621.338C401.841 621.765 401.841 622.458 402.269 622.885L402.721 623.337L401.887 624.17L401.435 623.718C401.008 623.291 400.316 623.291 399.888 623.718C399.461 624.145 399.461 624.838 399.888 625.265L400.34 625.717L391.516 634.541C387.234 631.89 382.93 631.943 380.134 634.74C379.341 635.533 378.746 636.311 378.316 637.119C376.743 640.078 373.231 642.738 370.147 643.308C367.85 643.732 365.772 644.774 364.136 646.321C362.029 648.314 360.885 650.915 360.828 653.842C360.751 657.769 362.658 662.017 366.059 665.498C369.493 669.012 373.725 671.04 377.672 671.062C377.694 671.062 377.717 671.062 377.74 671.062C380.648 671.062 383.263 669.984 385.306 667.941C386.977 666.269 388.096 664.112 388.541 661.703C388.601 661.379 388.686 661.044 388.793 660.707C388.977 660.132 388.659 659.516 388.083 659.333C387.508 659.149 386.893 659.467 386.709 660.043C386.574 660.467 386.467 660.892 386.39 661.306C386.026 663.278 385.116 665.037 383.759 666.394C382.135 668.018 380.055 668.875 377.739 668.875C377.721 668.875 377.702 668.875 377.684 668.875C374.318 668.855 370.651 667.067 367.624 663.97C364.629 660.905 362.95 657.229 363.015 653.885C363.061 651.558 363.968 649.491 365.64 647.91C366.968 646.653 368.664 645.806 370.544 645.459C374.281 644.769 378.362 641.694 380.248 638.146C380.574 637.532 381.043 636.924 381.681 636.287C384.316 633.651 387.912 635.018 389.916 636.142L380.959 645.099C379.301 645.019 377.617 645.611 376.353 646.874C375.202 648.026 374.568 649.557 374.568 651.185C374.568 652.813 375.202 654.344 376.353 655.496C377.504 656.647 379.035 657.281 380.664 657.281C382.292 657.281 383.823 656.647 384.975 655.496C386.238 654.233 386.829 652.548 386.75 650.891L395.698 641.942C396.81 643.961 398.136 647.6 395.367 650.369C394.897 650.839 394.362 651.24 393.776 651.56C393.48 651.722 393.181 651.902 392.886 652.097C392.382 652.43 392.244 653.109 392.577 653.613C392.787 653.931 393.135 654.104 393.49 654.104C393.697 654.104 393.906 654.045 394.092 653.922C394.336 653.761 394.583 653.612 394.825 653.479C395.595 653.059 396.297 652.532 396.914 651.915C398.555 650.274 399.339 648.16 399.18 645.801C399.061 644.029 398.414 642.156 397.302 640.339L406.132 631.509L406.774 632.15C406.987 632.364 407.267 632.47 407.547 632.47C407.827 632.47 408.107 632.364 408.32 632.15C408.748 631.723 408.748 631.03 408.32 630.603L407.679 629.962L408.512 629.128L409.154 629.77C409.368 629.984 409.647 630.09 409.927 630.09C410.207 630.09 410.487 629.984 410.701 629.77C411.128 629.343 411.128 628.65 410.701 628.223L410.059 627.581L411.621 626.019C411.826 625.814 411.941 625.536 411.941 625.246ZM383.428 653.949C382.689 654.687 381.708 655.094 380.664 655.094C379.62 655.094 378.638 654.687 377.9 653.949C376.376 652.425 376.376 649.945 377.9 648.421C378.662 647.659 379.663 647.278 380.664 647.278C381.665 647.278 382.666 647.659 383.428 648.421C384.951 649.945 384.951 652.425 383.428 653.949ZM386.107 648.44C385.823 647.875 385.446 647.345 384.975 646.874C384.975 646.874 384.975 646.874 384.975 646.874C384.504 646.403 383.974 646.026 383.41 645.742L399.507 629.644L402.205 632.342L386.107 648.44ZM403.752 630.795L401.054 628.097L401.887 627.264L404.585 629.962L403.752 630.795ZM406.132 628.415L403.434 625.717L404.268 624.884L406.965 627.581L406.132 628.415ZM405.814 623.337L406.603 622.548L409.301 625.246L408.512 626.034L405.814 623.337Z" fill="#8A8A8A"/>
<path d="M371.919 623.763C371.919 623.41 371.75 623.079 371.463 622.874C371.177 622.668 370.809 622.614 370.475 622.727L361.904 625.628C361.46 625.779 361.161 626.195 361.161 626.664V634.932C360.698 634.724 360.185 634.607 359.645 634.607C357.603 634.607 355.941 636.269 355.941 638.311C355.941 640.353 357.603 642.015 359.645 642.015C361.687 642.015 363.348 640.353 363.348 638.311C363.348 638.248 363.348 627.449 363.348 627.449L369.732 625.288V632.03C369.269 631.822 368.755 631.706 368.216 631.706C366.173 631.706 364.512 633.367 364.512 635.409C364.512 637.452 366.173 639.113 368.216 639.113C370.258 639.113 371.919 637.452 371.919 635.409C371.919 635.346 371.919 623.763 371.919 623.763ZM359.645 639.827C358.809 639.827 358.129 639.147 358.129 638.311C358.129 637.475 358.809 636.795 359.645 636.795C360.481 636.795 361.161 637.475 361.161 638.311C361.161 639.147 360.481 639.827 359.645 639.827ZM368.216 636.926C367.38 636.926 366.7 636.245 366.7 635.409C366.7 634.573 367.38 633.893 368.216 633.893C369.052 633.893 369.732 634.573 369.732 635.409C369.732 636.245 369.052 636.926 368.216 636.926Z" fill="#8A8A8A"/>
<path d="M406.925 653.545L403.231 652.294C402.897 652.181 402.529 652.236 402.243 652.442C401.956 652.647 401.787 652.978 401.787 653.33V661.598C401.324 661.39 400.81 661.273 400.27 661.273C398.228 661.273 396.567 662.935 396.567 664.977C396.567 667.019 398.228 668.681 400.27 668.681C402.313 668.681 403.974 667.019 403.974 664.977C403.974 664.914 403.974 664.72 403.974 664.685V654.855L406.223 655.617C406.795 655.811 407.416 655.504 407.61 654.932C407.804 654.359 407.497 653.738 406.925 653.545ZM400.27 666.493C399.434 666.493 398.754 665.813 398.754 664.977C398.754 664.141 399.434 663.461 400.27 663.461C401.106 663.461 401.787 664.141 401.787 664.977C401.787 665.813 401.106 666.493 400.27 666.493Z" fill="#8A8A8A"/>
<path d="M385.839 626.831C385.624 626.831 385.409 626.768 385.223 626.641C384.451 626.114 380.556 623.417 379.65 622.011C379.256 621.399 378.743 620.427 378.83 619.061C378.976 616.795 380.831 615.038 383.051 615.062C384.299 615.076 385.291 615.739 385.948 616.359C386.621 615.762 387.619 615.125 388.809 615.125C388.821 615.125 388.833 615.125 388.845 615.125C391.067 615.149 392.882 616.945 392.979 619.213C393.038 620.578 392.503 621.539 392.096 622.144C391.155 623.542 387.216 626.146 386.436 626.654C386.254 626.772 386.047 626.831 385.839 626.831ZM383.008 617.25C381.975 617.25 381.083 618.121 381.013 619.202C380.976 619.773 381.114 620.244 381.49 620.827C381.927 621.507 384.129 623.203 385.853 624.416C387.597 623.244 389.827 621.598 390.282 620.923C390.67 620.346 390.818 619.878 390.794 619.307C390.747 618.219 389.863 617.324 388.822 617.313C387.95 617.305 387.008 618.354 386.805 618.637C386.594 618.93 386.254 619.099 385.891 619.091C385.529 619.082 385.196 618.896 385 618.592C384.756 618.226 383.922 617.26 383.027 617.25C383.021 617.25 383.014 617.25 383.008 617.25Z" fill="#8A8A8A"/>
</g>
<g opacity="0.37" clip-path="url(#clip13)">
<path d="M89.8422 301.967C88.5583 303.145 88.474 305.133 89.6452 306.41C90.8201 307.691 92.808 307.771 94.0879 306.597C98.6595 302.405 103.438 300.036 107.989 299.94C112.11 299.857 116.208 301.683 119.966 305.782C123.725 309.881 125.195 314.117 124.756 318.216C124.272 322.746 121.495 327.298 116.919 331.494C115.635 332.671 115.551 334.659 116.722 335.936C117.897 337.217 119.885 337.297 121.165 336.123C126.865 330.897 130.346 324.993 131.004 318.878C131.488 314.379 130.461 309.854 127.691 305.51L131.499 302.018L136.703 307.693C137.633 308.707 139.226 308.774 140.242 307.842L142.094 306.144L121.51 283.698L119.658 285.396C118.642 286.328 118.571 287.921 119.501 288.935L124.717 294.622L120.909 298.114C116.815 294.983 112.404 293.569 107.872 293.662C101.728 293.787 95.5417 296.741 89.8422 301.967ZM82.6651 339.997C78.3316 335.272 78.6643 327.854 83.3959 323.515L83.6199 323.309L87.8546 327.927L93.3382 322.898L89.0998 318.277L91.8916 315.716L96.13 320.338L101.614 315.309L97.3752 310.688L99.347 308.879C104.083 304.537 111.501 304.853 115.831 309.575C120.164 314.3 119.832 321.718 115.1 326.057L113.128 327.865L108.89 323.244L103.406 328.272L107.648 332.898L104.856 335.458L100.618 330.837L95.1345 335.865L99.3729 340.487L99.1489 340.692C94.4173 345.032 86.9986 344.722 82.6651 339.997Z" fill="#8A8A8A" fill-opacity="0.25"/>
</g>
<g opacity="0.45" clip-path="url(#clip14)">
<path d="M806.524 639.24C807.308 637.983 806.925 636.335 805.675 635.555C804.421 634.772 802.773 635.158 801.991 636.411C799.197 640.887 795.82 643.916 792.111 645.03C788.752 646.035 784.979 645.47 780.965 642.965C776.952 640.461 774.784 637.323 774.212 633.864C773.579 630.041 774.819 625.678 777.615 621.198C778.4 619.941 778.017 618.293 776.766 617.513C775.512 616.73 773.864 617.116 773.082 618.369C769.599 623.95 768.089 629.58 768.94 634.742C769.567 638.539 771.438 642.014 774.696 644.946L772.369 648.674L766.813 645.206C765.82 644.586 764.499 644.894 763.878 645.888L762.747 647.701L784.723 661.417L785.855 659.604C786.476 658.609 786.171 657.287 785.179 656.668L779.61 653.193L781.937 649.465C786.004 651.1 789.941 651.255 793.635 650.149C798.643 648.649 803.041 644.821 806.524 639.24ZM803.757 606.438C808.383 609.325 809.798 615.481 806.907 620.114L806.77 620.333L802.249 617.511L798.898 622.88L803.423 625.704L801.717 628.438L797.192 625.613L793.841 630.982L798.366 633.806L797.161 635.737C794.268 640.374 788.115 641.801 783.493 638.916C778.866 636.029 777.452 629.873 780.343 625.241L781.548 623.31L786.073 626.134L789.423 620.765L784.895 617.939L786.6 615.205L791.125 618.029L794.476 612.66L789.951 609.836L790.088 609.617C792.979 604.984 799.13 603.55 803.757 606.438Z" fill="#8A8A8A" fill-opacity="0.25"/>
</g>
<g opacity="0.45" clip-path="url(#clip15)">
<path d="M1005.06 147.357C1005.91 146.577 1005.96 145.265 1005.18 144.424C1004.41 143.581 1003.09 143.533 1002.25 144.31C999.243 147.088 996.095 148.662 993.091 148.735C990.371 148.799 987.663 147.603 985.173 144.906C982.683 142.209 981.703 139.416 981.984 136.71C982.294 133.719 984.116 130.708 987.127 127.929C987.972 127.149 988.023 125.837 987.247 124.996C986.469 124.153 985.157 124.105 984.314 124.882C980.564 128.345 978.28 132.249 977.859 136.286C977.549 139.257 978.237 142.241 980.075 145.103L977.57 147.416L974.122 143.681C973.506 143.014 972.454 142.974 971.786 143.591L970.567 144.716L984.203 159.485L985.422 158.36C986.09 157.743 986.133 156.691 985.517 156.024L982.062 152.282L984.568 149.969C987.276 152.026 990.191 152.95 993.182 152.878C997.237 152.783 1001.31 150.819 1005.06 147.357ZM1009.72 122.24C1012.59 125.35 1012.38 130.246 1009.27 133.121L1009.12 133.257L1006.32 130.218L1002.71 133.55L1005.52 136.591L1003.68 138.287L1000.87 135.246L997.265 138.577L1000.07 141.618L998.775 142.816C995.659 145.693 990.762 145.5 987.894 142.393C985.023 139.284 985.227 134.387 988.34 131.513L989.637 130.315L992.445 133.356L996.053 130.025L993.243 126.981L995.08 125.285L997.888 128.326L1001.5 124.995L998.688 121.954L998.836 121.818C1001.95 118.943 1006.85 119.131 1009.72 122.24Z" fill="#8A8A8A" fill-opacity="0.25"/>
</g>
<g opacity="0.77" clip-path="url(#clip16)">
<path d="M25.791 850.204C28.8829 847.522 31.5922 843.729 33.2189 839.626C34.2614 836.991 34.5858 833.97 34.1582 830.884C33.4895 826.038 30.7647 822.534 28.1326 819.148C26.168 816.621 24.3113 814.235 23.375 811.397L23.2061 810.891C22.6494 809.223 22.0226 807.334 22.2607 806.002C22.5037 804.656 21.6364 803.351 20.3365 803C19.012 802.658 17.657 803.399 17.2312 804.701L2.8056 848.82C1.14528 846.872 -1.15343 845.25 -3.94686 844.32C-10.7599 842.052 -17.7595 844.646 -19.5453 850.107C-21.3311 855.569 -17.236 861.858 -10.4229 864.127C-3.60982 866.396 3.38975 863.801 5.17567 858.34L14.6113 829.481C17.8596 832.139 22.7524 837.782 21.66 846.791C21.198 847.148 20.7395 847.544 20.2637 847.825C19.024 848.549 18.6111 850.146 19.3449 851.39C20.0655 852.64 21.6635 853.052 22.9033 852.328C23.812 851.796 24.6885 851.11 25.5534 850.377C25.6354 850.328 25.7142 850.272 25.791 850.204Z" fill="#8A8A8A" fill-opacity="0.15"/>
</g>
</g>
<defs>
<clipPath id="clip0">
<rect width="1440" height="1024" fill="white"/>
</clipPath>
<clipPath id="clip1">
<rect width="49.8914" height="49.8914" fill="white" transform="translate(672 55.3201) rotate(-37.4249)"/>
</clipPath>
<clipPath id="clip2">
<rect width="65.1686" height="65.1686" fill="white" transform="translate(1276.41 226) rotate(52.0859)"/>
</clipPath>
<clipPath id="clip3">
<rect width="65.1686" height="65.1686" fill="white" transform="translate(292.375 387.112) rotate(-25.1894)"/>
</clipPath>
<clipPath id="clip4">
<rect width="65.1686" height="65.1686" fill="white" transform="translate(209.896 878) rotate(74.8245)"/>
</clipPath>
<clipPath id="clip5">
<rect width="57" height="43" fill="white" transform="translate(276.801 141.633) rotate(-40.3559)"/>
</clipPath>
<clipPath id="clip6">
<rect width="57" height="43" fill="white" transform="translate(1301.02 913) rotate(62.1461)"/>
</clipPath>
<clipPath id="clip7">
<rect width="58" height="43" fill="white" transform="translate(1390 38)"/>
</clipPath>
<clipPath id="clip8">
<rect width="36" height="27" fill="white" transform="translate(1013 783)"/>
</clipPath>
<clipPath id="clip9">
<rect width="36" height="27" fill="white" transform="translate(241 818.936) rotate(-86.5698)"/>
</clipPath>
<clipPath id="clip10">
<rect width="56" height="56" fill="white" transform="translate(1268 604)"/>
</clipPath>
<clipPath id="clip11">
<rect width="56" height="56" fill="white" transform="translate(854.445 899.527) rotate(86.8997)"/>
</clipPath>
<clipPath id="clip12">
<rect width="56" height="56" fill="white" transform="translate(355.941 615.062)"/>
</clipPath>
<clipPath id="clip13">
<rect width="46.3547" height="66.6857" fill="white" transform="translate(98.3302 357.079) rotate(-132.523)"/>
</clipPath>
<clipPath id="clip14">
<rect width="39.4293" height="56.7229" fill="white" transform="translate(787.032 596) rotate(31.9685)"/>
</clipPath>
<clipPath id="clip15">
<rect width="30.5954" height="44.0144" fill="white" transform="translate(999.339 111) rotate(47.2852)"/>
</clipPath>
<clipPath id="clip16">
<rect width="61" height="46" fill="white" transform="translate(-33 830.852) rotate(-28.2284)"/>
</clipPath>
</defs>
</svg>
