<svg fill="#c5c5c5" xmlns="http://www.w3.org/2000/svg" viewBox="0 0 3333.33 2582.61" shape-rendering="geometricPrecision" text-rendering="geometricPrecision" image-rendering="optimizeQuality" fill-rule="evenodd" clip-rule="evenodd"><path d="M1854.75 1688.26c9.22-1.57 18.31-2.26 27.09-2.11 4.16.07 8.22.33 12.16.77v-312.64l-338.04 97.11v387.07c.08 1.37.09 5.61.28 6.58 0 29.81-15.31 59.21-40.06 82.6-24.13 22.76-57.35 40.02-93.96 46.32-10.09 1.74-19.89 2.59-29.26 2.59-27.5 0-52.04-7.14-70.76-19.68-19.43-13-32.6-31.76-36.52-54.46-.81-4.64-1.23-9.39-1.23-14.22 0-29.76 15.33-59.12 40.06-82.52 24.1-22.79 57.36-40.08 93.98-46.43 13.61-2.33 26.8-3.02 39.24-2.21 7.46.48 14.68 1.5 21.56 3.01l-.04-483.21h12.98l478.5-109.62v561.31l.82 6.01c.25 2.58.39 4.99.39 7.15 0 25.43-13.02 50.45-34.06 70.34-20.38 19.27-48.48 33.89-79.42 39.2-8.52 1.47-16.79 2.19-24.7 2.19-23.34 0-44.21-6.08-60.15-16.76-16.64-11.15-27.94-27.24-31.3-46.72-.69-3.98-1.05-8.06-1.05-12.17 0-25.41 13.02-50.42 34.05-70.3 20.4-19.26 48.5-33.86 79.43-39.2zm-188.09-837.03c201.86 0 384.63 81.82 516.9 214.11 132.29 132.28 214.11 315.06 214.11 516.91 0 201.85-81.82 384.62-214.11 516.89-132.29 132.29-315.05 214.11-516.9 214.11-201.85 0-384.62-81.82-516.89-214.11-132.29-132.27-214.11-315.04-214.11-516.89 0-201.85 81.82-384.61 214.11-516.91 132.27-132.29 315.04-214.11 516.89-214.11zm426.3 304.72c-109.09-109.09-259.81-176.57-426.3-176.57-166.47 0-317.2 67.48-426.29 176.57-109.09 109.09-176.57 259.82-176.57 426.3 0 166.47 67.48 317.2 176.57 426.28 109.08 109.09 259.81 176.57 426.29 176.57 166.47 0 317.2-67.48 426.3-176.57 109.09-109.08 176.57-259.81 176.57-426.28 0-166.47-67.48-317.21-176.57-426.3zM67.18 562.64h121.96V295.21c0-37.18 30.15-67.35 67.34-67.35h119.61V67.33c0-37.19 30.15-67.34 67.35-67.34h1092.14c37.18 0 67.34 30.15 67.34 67.34v160.53h1472.86c37.19 0 67.34 30.15 67.34 67.35v267.43h122.87c37.19 0 67.34 30.15 67.34 67.34 0 4.87-.52 9.63-1.51 14.23l-235.46 1731.01c-7.68 56.44-32.35 108.79-70.21 146.63-37.51 37.49-87.06 60.76-145.4 60.76H398.7c-58.66 0-109.25-23.48-147.2-61.42-38.13-38.12-62.78-90.86-68.79-148.2L.36 636.82c-3.78-36.89 23.07-69.88 59.98-73.66 2.3-.24 4.57-.35 6.84-.35V562.63zm189.31 134.69h-114.7L316.36 2359.3c2.78 26.56 13.48 50.3 29.86 66.66 13.56 13.57 31.61 21.96 52.49 21.96h2482.05c20.26 0 37.55-8.17 50.69-21.3 16.85-16.85 28.05-41.61 31.8-69.29l225.8-1660H256.48v.01zm67.35-334.77v199.62l2684.6-28.54V362.57H1535.59c-37.19 0-67.35-30.16-67.35-67.34V134.7H510.79v160.53c0 37.18-30.15 67.34-67.34 67.34H323.84v-.02z" fill-rule="nonzero"/></svg>