<!-- Generated by IcoMoon.io -->
<svg version="1.1" xmlns="http://www.w3.org/2000/svg" width="384" height="448" viewBox="0 0 384 448">
<title></title>
<g id="icomoon-ignore">
</g>
<path fill="#6E64E7" d="M321 183.5c0-4.25-1.5-8.5-4.5-11.5l-22.75-22.5c-3-3-7-4.75-11.25-4.75s-8.25 1.75-11.25 4.75l-102 101.75-56.5-56.5c-3-3-7-4.75-11.25-4.75s-8.25 1.75-11.25 4.75l-22.75 22.5c-3 3-4.5 7.25-4.5 11.5s1.5 8.25 4.5 11.25l90.5 90.5c3 3 7.25 4.75 11.25 4.75 4.25 0 8.5-1.75 11.5-4.75l135.75-135.75c3-3 4.5-7 4.5-11.25zM384 224c0 106-86 192-192 192s-192-86-192-192 86-192 192-192 192 86 192 192z"></path>
</svg>
