<?xml version="1.0" encoding="utf-8"?>
<!-- Generator: Adobe Illustrator 24.1.0, SVG Export Plug-In . SVG Version: 6.00 Build 0)  -->
<svg version="1.1"
	 id="Layer_1" shape-rendering="geometricPrecision" image-rendering="optimizeQuality" text-rendering="geometricPrecision"
	 xmlns="http://www.w3.org/2000/svg" xmlns:xlink="http://www.w3.org/1999/xlink" x="0px" y="0px" viewBox="0 0 64 64"
	 style="enable-background:new 0 0 64 64;" xml:space="preserve">
<style type="text/css">
	.st0{fill-rule:evenodd;clip-rule:evenodd;fill:#ffffff;}
</style>
<path class="st0" d="M48.1,23.3l-6.6,6.5c0.1,0.6,0.1,1.2,0.1,1.8c-0.2,4.9-4.1,8.8-8.8,8.8c-0.6,0-1.2-0.1-1.8-0.2l-7,6.9
	l37.8,15.5C61.9,62.4,48.1,23.3,48.1,23.3z M17.3,41.5l6.7-6.6c-0.3-0.9-0.4-1.9-0.4-3c0.2-4.9,4.1-8.8,8.8-8.8c1,0,2,0.2,3,0.6
	l6-5.9L3.5,2.3L17.3,41.5L17.3,41.5z"/>
</svg>
