<!-- Generated by IcoMoon.io -->
<svg fill="#c5c5c5" version="1.1" xmlns="http://www.w3.org/2000/svg" width="1024" height="1024" viewBox="0 0 1024 1024">
<title></title>
<g id="icomoon-ignore">
</g>
<path fill="#c5c5c5" d="M702.432 36.8c-262.464-105.088-560.48 22.464-665.6 284.96-105.152 262.528 22.464 560.576 284.96 665.664 262.496 105.12 560.512-22.464 665.632-284.96 105.152-262.528-22.496-560.512-284.992-665.664zM345.6 928.032c-229.312-91.84-341.184-353.088-249.376-582.432 91.84-229.312 353.12-341.216 582.464-249.344 229.312 91.808 341.184 353.088 249.376 582.4-91.872 229.344-353.12 341.184-582.464 249.376zM535.968 452.704c-32.8-13.152-70.080 2.816-83.232 35.616s2.816 70.048 35.584 83.2c32.8 13.152 70.112-2.816 83.232-35.584 13.12-32.8-2.816-70.048-35.584-83.232zM500.224 541.856c-16.384-6.592-24.352-25.216-17.824-41.632 6.592-16.384 25.248-24.352 41.632-17.824 16.352 6.56 24.32 25.216 17.792 41.632-6.56 16.384-25.216 24.352-41.6 17.824zM583.488 333.92c-98.432-39.424-210.176 8.448-249.6 106.848-39.424 98.432 8.448 210.176 106.848 249.6 98.432 39.424 210.176-8.416 249.6-106.848s-8.384-210.208-106.848-249.6zM464.576 630.944c-65.536-26.208-97.472-100.896-71.264-166.4 26.24-65.504 100.864-97.472 166.368-71.264 65.568 26.24 97.504 100.928 71.328 166.432-26.272 65.504-100.928 97.504-166.432 71.232zM749.824 607.296h-0.064c-26.144 65.248-76.256 113.792-136.192 139.712-0.224 0.096-0.352 0.352-0.672 0.48-8.128 3.456-17.504-0.288-20.992-8.448-3.488-8.096 0.32-17.504 8.384-20.96 52.672-22.56 96.8-65.216 119.808-122.688v0.032c3.296-8.224 12.608-12.224 20.8-8.896 8.192 3.264 12.192 12.576 8.928 20.768zM859.68 634.048c8.192 3.296 12.192 12.608 8.928 20.8-39.2 97.856-114.432 170.72-204.32 209.536-0.384 0.16-0.672 0.512-1.056 0.704-8.128 3.456-17.504-0.256-20.992-8.416-3.488-8.128 0.32-17.536 8.384-20.992 82.816-35.456 152.128-102.496 188.256-192.736 3.296-8.192 12.608-12.192 20.8-8.896zM800.256 610.272c8.192 3.296 12.192 12.608 8.928 20.8-32.672 81.568-95.36 142.24-170.24 174.592-0.352 0.192-0.544 0.48-0.864 0.64-8.128 3.456-17.504-0.288-20.992-8.416s0.32-17.536 8.448-21.024h-0.064c67.808-29.024 124.48-83.84 153.984-157.696 3.296-8.224 12.608-12.192 20.8-8.896zM432.416 285.184c3.488 8.16-0.288 17.536-8.416 21.056-52.672 22.528-96.8 65.216-119.776 122.624h-0.032c-3.264 8.192-12.576 12.192-20.8 8.896-8.192-3.296-12.192-12.576-8.896-20.8h0.032c26.112-65.216 76.256-113.792 136.192-139.712 0.224-0.096 0.384-0.352 0.672-0.448 8.128-3.488 17.536 0.224 21.024 8.384zM382.016 167.52c3.488 8.128-0.288 17.504-8.384 21.024-82.816 35.456-152.096 102.496-188.256 192.704-3.296 8.224-12.608 12.192-20.8 8.896-8.224-3.264-12.224-12.576-8.896-20.832 39.2-97.856 114.4-170.688 204.32-209.536 0.32-0.16 0.608-0.512 0.992-0.672 8.128-3.456 17.536 0.288 21.024 8.416zM398.784 247.328v0.096c-67.744 28.992-124.448 83.84-153.984 157.696-3.296 8.224-12.608 12.16-20.8 8.896-8.16-3.328-12.192-12.608-8.864-20.832 32.64-81.536 95.328-142.272 170.24-174.656 0.32-0.128 0.512-0.448 0.832-0.576 8.128-3.488 17.536 0.288 21.024 8.384 3.488 8.16-0.32 17.536-8.416 20.992z"></path>
</svg>
