<svg fill="#c5c5c5" xmlns="http://www.w3.org/2000/svg" width="64" height="64" shape-rendering="geometricPrecision" text-rendering="geometricPrecision" image-rendering="optimizeQuality" fill-rule="evenodd" clip-rule="evenodd" viewBox="0 0 640 640"><path d="M320 0c176.707 0 320 143.305 320 320 0 176.707-143.293 320-320 320C143.305 640 0 496.707 0 320 0 143.305 143.305 0 320 0zm0 295.055c13.784 0 24.957 11.173 24.957 24.945S333.784 344.945 320 344.945c-13.772 0-24.945-11.173-24.945-24.945s11.173-24.945 24.945-24.945zm0-76.336c55.926 0 101.281 45.355 101.281 101.281 0 55.926-45.355 101.281-101.281 101.281-55.914 0-101.269-45.354-101.269-101.28S264.086 218.718 320 218.718zM70.773 260.165c16.701-44.717 43.229-84.615 76.926-117.072 33.65-32.422 74.47-57.45 119.801-72.462l8.103 24.591c-41.658 13.796-79.123 36.757-109.997 66.497-30.97 29.823-55.324 66.45-70.643 107.446l-24.19-9zm80.895 18.898c10.488-28.087 27.142-53.15 48.296-73.525 21.142-20.362 46.772-36.083 75.237-45.496l8.09 24.59c-24.78 8.21-47.055 21.851-65.422 39.533-18.413 17.752-32.906 39.532-42.012 63.898l-24.19-9zm339.382 77.906c-10.489 28.087-27.142 53.15-48.296 73.525-21.142 20.362-46.76 36.083-75.237 45.496l-8.09-24.59c24.79-8.21 47.067-21.851 65.421-39.52 18.426-17.765 32.906-39.545 42.012-63.911l24.19 9zm80.894 18.91c-16.7 44.705-43.217 84.603-76.914 117.06-33.662 32.433-74.47 57.45-119.812 72.461l-8.102-24.59c41.67-13.796 79.123-36.757 109.997-66.497 30.969-29.824 55.323-66.45 70.642-107.446l24.19 9.012z"/></svg>