<svg xmlns="http://www.w3.org/2000/svg" width="64" height="64" fill="#ffffff" viewBox="0 0 640 640" shape-rendering="geometricPrecision" text-rendering="geometricPrecision" image-rendering="optimizeQuality" clip-rule="evenodd"><path d="M640 320c0 43.075-34.937 78.013-78.013 78.013-43.075 0-78-34.938-78-78.013s34.925-78.013 78-78.013C605.063 241.987 640 276.925 640 320zm-483.986 0c0 43.075-34.937 78.013-78.013 78.013-43.075 0-78-34.938-78-78.013s34.925-78.013 78-78.013c43.076 0 78.013 34.938 78.013 78.013zm241.987 0c0 43.075-34.937 78.013-78.013 78.013-43.063 0-78-34.938-78-78.013s34.937-78.013 78-78.013c43.076 0 78.013 34.938 78.013 78.013z"/></svg>