<!-- Generated by IcoMoon.io -->
<svg version="1.1" xmlns="http://www.w3.org/2000/svg" width="768" height="768" viewBox="0 0 768 768">
<title></title>
<g id="icomoon-ignore">
</g>
<path fill="#0288D1" d="M640 480v128c0 8.832-3.552 16.8-9.376 22.624s-13.792 9.376-22.624 9.376h-448c-8.832 0-16.8-3.552-22.624-9.376s-9.376-13.792-9.376-22.624v-128c0-17.664-14.336-32-32-32s-32 14.336-32 32v128c0 26.496 10.784 50.56 28.128 67.872s41.376 28.128 67.872 28.128h448c26.496 0 50.56-10.784 67.872-28.128s28.128-41.376 28.128-67.872v-128c0-17.664-14.336-32-32-32s-32 14.336-32 32zM416 402.752v-306.752c0-17.664-14.336-32-32-32s-32 14.336-32 32v306.752l-105.376-105.376c-12.512-12.512-32.768-12.512-45.248 0s-12.512 32.768 0 45.248l160 160c2.944 2.944 6.464 5.312 10.368 6.944s8.096 2.432 12.256 2.432c8.192 0 16.384-3.136 22.624-9.376l160-160c12.512-12.512 12.512-32.768 0-45.248s-32.768-12.512-45.248 0z"></path>
</svg>
