<!-- Generated by IcoMoon.io -->
<svg version="1.1" xmlns="http://www.w3.org/2000/svg" width="480" height="448" viewBox="0 0 480 448">
<title></title>
<g id="icomoon-ignore">
</g>
<path  d="M148.25 224c-26 0.75-49.5 12-66.25 32h-33.5c-25 0-48.5-12-48.5-39.75 0-20.25-0.75-88.25 31-88.25 5.25 0 31.25 21.25 65 21.25 11.5 0 22.5-2 33.25-5.75-0.75 5.5-1.25 11-1.25 16.5 0 22.75 7.25 45.25 20.25 64zM416 383.25c0 40.5-26.75 64.75-66.75 64.75h-218.5c-40 0-66.75-24.25-66.75-64.75 0-56.5 13.25-143.25 86.5-143.25 8.5 0 39.5 34.75 89.5 34.75s81-34.75 89.5-34.75c73.25 0 86.5 86.75 86.5 143.25zM160 64c0 35.25-28.75 64-64 64s-64-28.75-64-64 28.75-64 64-64 64 28.75 64 64zM336 160c0 53-43 96-96 96s-96-43-96-96 43-96 96-96 96 43 96 96zM480 216.25c0 27.75-23.5 39.75-48.5 39.75h-33.5c-16.75-20-40.25-31.25-66.25-32 13-18.75 20.25-41.25 20.25-64 0-5.5-0.5-11-1.25-16.5 10.75 3.75 21.75 5.75 33.25 5.75 33.75 0 59.75-21.25 65-21.25 31.75 0 31 68 31 88.25zM448 64c0 35.25-28.75 64-64 64s-64-28.75-64-64 28.75-64 64-64 64 28.75 64 64z"></path>
</svg>
