<svg fill="#c5c5c5"  xmlns="http://www.w3.org/2000/svg" viewBox="0 0 333334 297223" shape-rendering="geometricPrecision" text-rendering="geometricPrecision" image-rendering="optimizeQuality" fill-rule="evenodd" clip-rule="evenodd"><path d="M177565 53096c-1834 1944-3700 3924-5971 6293l-6269 6539-6508-6328c-1915-1863-3874-3790-5790-5674-20131-19802-35293-34715-66513-35122-1233-16-2528 0-3880 49-17465 625-33583 7048-45356 18028-11620 10838-19026 26228-19270 44955-15 1156 1 2393 48 3709 1872 52278 51889 97869 93362 135671 8000 7292 15691 14302 23037 21379l30554 29430 38392-38082c6183-6133 13178-12833 20660-19999 12735-12197 26888-25752 40073-39399 9457-9787 18439-19643 26074-29107 7477-9269 13619-18082 17561-25952 6464-12902 8493-25823 7106-37895-1367-11900-6056-23019-13087-32515-7131-9630-16631-17596-27510-23047-12507-6266-26858-9205-41540-7517-25300 2908-38781 17202-55172 34583zm-12704-12804c18699-19826 34237-36078 65829-39709 18240-2097 36079 1559 51634 9352 13432 6730 25150 16550 33932 28411 8882 11996 14809 26081 16546 41198 1764 15346-787 31715-8941 47989-4611 9204-11441 19074-19608 29198-8009 9928-17344 20176-27133 30307-13456 13927-27726 27594-40567 39893-7508 7191-14527 13913-20448 19787l-44654 44293-6261 6211-6338-6105-36891-35535c-6744-6496-14556-13617-22685-21026C55271 194445 2200 146071 56 86179c-52-1468-68-2988-48-4556 314-24041 9917-43887 24987-57943C39913 9766 60171 1633 81998 852c1502-54 3078-70 4726-49 38054 496 55467 17194 78136 39487z" fill-rule="nonzero"/></svg>