<svg fill="#c5c5c5" xmlns="http://www.w3.org/2000/svg"  viewBox="0 0 333334 310467" shape-rendering="geometricPrecision" text-rendering="geometricPrecision" image-rendering="optimizeQuality" fill-rule="evenodd" clip-rule="evenodd"><path d="M300573 292631v12154c0 3138-2544 5682-5682 5682H36910c-3138 0-5682-2544-5682-5682V159797c-6359 2448-12280 2482-17220 820-3859-1298-7100-3622-9501-6656-2383-3011-3911-6686-4365-10709-706-6253 1175-13359 6513-19998l4 4c268-332 577-639 928-913L162360 1496c2003-1845 5104-2028 7326-302l155130 120597-6 7c236 184 461 389 672 615 7185 7734 8972 16311 7233 23559-857 3570-2573 6795-4932 9437-2364 2647-5366 4709-8789 5946-5435 1965-11886 1889-18422-1200v132476zM15122 130825c-2999 3923-4080 7854-3705 11185 215 1900 903 3594 1967 4939 1046 1322 2485 2344 4220 2927 2954 994 6787 743 11158-1324L163825 45798c2091-1596 4936-1515 6919 28l5-6 131224 102002c60 47 119 95 177 144 4806 3463 9426 4021 12983 2735 1654-598 3094-1583 4217-2839 1128-1263 1949-2805 2358-4510 896-3737-178-8355-4203-12862L166196 12863 15122 130824zm65182 73947h72419c2828 0 5120 2246 5120 5017v56658c0 2771-2293 5017-5120 5017H80304c-2828 0-5120-2246-5120-5017v-56658c0-2771 2292-5017 5120-5017zm103431-4997h68002c3046 0 5516 2546 5516 5687v93642h31957V153459c0-374 37-738 106-1092L167221 57460 42402 152420c124 467 191 957 191 1463v145220h135627v-93642c0-3141 2470-5687 5516-5687zm62487 11373h-56971v87843h56971v-87843zm-98618 31984h-26891v18297h26891v-18297zm-36919 0H85425v18297h25260v-18297zm-25260-10028h25260v-18297H85425v18297zm35288 0h26891v-18297h-26891v18297zm44435-134559c9628 0 17433 7804 17433 17432s-7805 17433-17433 17433-17433-7805-17433-17433 7805-17432 17433-17432z"/></svg>