<!-- Generated by IcoMoon.io -->
<svg version="1.1" xmlns="http://www.w3.org/2000/svg" width="1024" height="1024" viewBox="0 0 1024 1024">
<title></title>
<g id="icomoon-ignore">
</g>
<path fill="#38c172" d="M672 765.269v83.019c0 8.678 7.422 15.712 16 15.712 8.837 0 16-7.292 16-15.712v-83.019c18.643-6.589 32-24.369 32-45.269 0-26.51-21.49-48-48-48s-48 21.49-48 48c0 20.9 13.357 38.679 32 45.269v0 0zM448 271.997c0-79.528-64.633-143.997-144-143.997-79.529 0-144 64.54-144 143.997v127.976c0 26.313-21.49 48.027-48 48.027-26.694 0-48-21.502-48-48.027v-127.998c0-132.561 107.452-239.976 240-239.976 132.279 0 240 107.441 240 239.976v240.024h383.719c53.222 0 96.281 43.116 96.281 96.303v159.697c0 141.097-114.602 256-255.971 256h-160.057c-141.214 0-255.971-114.615-255.971-256v-159.697c0-53.437 42.955-96.152 96-96.303v-240.003z"></path>
</svg>
