<svg xmlns="http://www.w3.org/2000/svg" fill="#CC3C3C" width="64" height="64" shape-rendering="geometricPrecision" text-rendering="geometricPrecision" image-rendering="optimizeQuality" fill-rule="evenodd" clip-rule="evenodd" viewBox="0 0 640 640"><path d="M637.201 273.7l-45.591 45.591L637.2 364.86l2.811 2.81-2.811 2.8-28.866 28.866-2.8 2.811-2.81-2.81-45.58-45.592-45.58 45.58-2.81 2.81-2.8-2.81-28.866-28.855-2.811-2.811 2.81-2.811 45.58-45.556-45.58-45.58-2.81-2.81 2.81-2.8 28.867-28.866 2.8-2.8 2.81 2.8 45.58 45.58 45.58-45.58 2.81-2.811 2.8 2.811L637.2 268.09l2.8 2.81-2.8 2.8zM0 600.822l.012-90.78c48.59-21.603 197.282-62.718 204.31-122.176 1.583-13.429-30.083-64.571-37.335-89.103-15.532-24.756-21.095-64.052-4.099-90.214 6.756-10.394 3.862-48.296 3.862-62.599 0-142.325 249.405-142.384 249.405 0 0 18.012-4.133 51.083 5.646 65.233 16.359 23.658 7.902 65.623-5.87 87.58-8.835 25.772-42.461 74.505-39.59 89.103 10.688 54.308 148.631 90.781 192.06 110.104v102.852H.001z"/></svg>