<svg fill="#c5c5c5" xmlns="http://www.w3.org/2000/svg" viewBox="0 0 2616 3853" shape-rendering="geometricPrecision" text-rendering="geometricPrecision" image-rendering="optimizeQuality" fill-rule="evenodd" clip-rule="evenodd"><path d="M1412 2993v756c0 58-47 104-104 104-58 0-104-47-104-104v-756c-319-25-606-166-820-380C147 2376 0 2049 0 1689c0-58 47-104 104-104 58 0 104 47 104 104 0 302 124 577 323 777 199 199 474 323 777 323 302 0 577-124 777-323 199-199 323-474 323-777 0-58 47-104 104-104 58 0 104 47 104 104 0 360-147 687-384 924-214 214-501 355-820 380zM1315 0c200 0 382 82 514 214s214 314 214 514v941c0 200-82 382-214 514s-314 214-514 214-382-82-514-214-214-314-214-514V728c0-200 82-382 214-514S1115 0 1315 0zm366 361c-94-94-224-152-366-152-143 0-272 58-366 152S797 585 797 727v941c0 143 58 272 152 366s224 152 366 152c143 0 272-58 366-152s152-224 152-366V727c0-143-58-272-152-366z" fill-rule="nonzero"/></svg>