<svg xmlns="http://www.w3.org/2000/svg"  fill="#ffffff" width="64" height="64" shape-rendering="geometricPrecision" text-rendering="geometricPrecision" image-rendering="optimizeQuality" fill-rule="evenodd" clip-rule="evenodd" viewBox="0 0 640 640"><path d="M506.38 406.434c14.291-2.48 27.756-2.067 39.58.697V129.26l-294.005 84.438v322.68a57.93 57.93 0 0 1 .248 5.387c0 43.453-45.59 86.564-101.824 96.284-56.221 9.71-101.824-17.646-101.824-61.099 0-43.441 45.603-86.552 101.824-96.273 21.166-3.65 40.831-2.055 57.119 3.674V87.154h2.469L590.427-.013v447.49a49.226 49.226 0 0 1 1.016 9.98c0 36.296-38.102 72.32-85.064 80.422-46.973 8.126-85.064-14.74-85.064-51.036 0-36.284 38.091-72.296 85.064-80.41z"/></svg>