<svg xmlns="http://www.w3.org/2000/svg" fill="#ffffff" viewBox="0 0 3593 3593" shape-rendering="geometricPrecision" text-rendering="geometricPrecision" image-rendering="optimizeQuality" fill-rule="evenodd" clip-rule="evenodd"><path d="M1654 142c0-19 4-38 11-54 7-18 18-33 31-46 26-26 61-42 101-42 19 0 38 4 54 11h1c17 7 32 18 45 30 26 26 42 61 42 101v1513h1513c19 0 38 4 54 11h1c17 7 32 18 45 30 26 26 42 61 42 101 0 19-4 38-11 54-7 18-18 33-31 46s-29 24-46 31-35 11-54 11H1939v1513c0 19-4 38-11 54v1c-7 17-18 32-30 45-26 26-61 42-101 42-19 0-38-4-54-11-18-7-33-18-46-31s-24-29-31-46-11-35-11-54V1939H142c-19 0-38-4-54-11-18-7-33-18-46-31s-24-29-31-46-11-35-11-54 4-38 11-54c7-18 18-33 31-46 26-26 61-42 101-42h1513V145v-3z" fill-rule="nonzero"/></svg>