<svg xmlns="http://www.w3.org/2000/svg"  fill="#ffffff" viewBox="0 0 333333 314999" shape-rendering="geometricPrecision" text-rendering="geometricPrecision" image-rendering="optimizeQuality" fill-rule="evenodd" clip-rule="evenodd"><path d="M229530 140607c37466 0 67838 30372 67838 67839 0 37466-30372 67838-67838 67838s-67839-30372-67839-67838 30372-67839 67839-67839zM33980 99540c768-742 1697-1341 2761-1737l78273-29209c1710-637 3500-650 5119-155 508-410 1090-746 1736-987l49883-18706c1119-417 2281-490 3372-274 93-43 187-83 284-120l51130-19953c1440-562 2976-457 4266 167 176-106 364-198 563-274l51553-19852c217-83 437-143 658-181 289-4609 4118-8258 8800-8258 4870 0 8819 3949 8819 8819s-3948 8819-8819 8819c-2542 0-4832-1076-6442-2797-152 86-313 162-482 227l-51553 19852c-116 44-232 82-349 113-480 1461-1585 2706-3130 3309l-51130 19953c-177 69-355 128-534 177-678 842-1583 1519-2669 1923l-49883 18706c-376 140-757 241-1138 305-851 1860-2411 3395-4478 4165L77797 99541h228430c7463 0 14242 3047 19150 7955s7955 11687 7955 19150v161249c0 7463-3047 14242-7955 19150s-11687 7955-19150 7955H27104c-7463 0-14242-3047-19150-7955S-1 295358-1 287895V126646c0-7463 3047-14242 7955-19150s11687-7955 19150-7955h6875zm3428 141704c-3938 0-7130-3192-7130-7130s3192-7130 7130-7130h87559c3938 0 7130 3192 7130 7130 0 3937-3192 7130-7130 7130H37408zm0 27009c-3938 0-7130-3192-7130-7130s3192-7130 7130-7130h106199c3937 0 7130 3192 7130 7130s-3192 7130-7130 7130H37408zm0-108037c-3938 0-7130-3192-7130-7130s3192-7130 7130-7130h103165c3938 0 7130 3192 7130 7130s-3192 7130-7130 7130H37408zm0 27009c-3938 0-7130-3192-7130-7130 0-3937 3192-7130 7130-7130h87559c3938 0 7130 3192 7130 7130s-3192 7130-7130 7130H37408zm0 27009c-3938 0-7130-3192-7130-7130s3192-7130 7130-7130h83659c3937 0 7130 3192 7130 7130s-3192 7130-7130 7130H37408zm268820-97761H27105c-2788 0-5330 1147-7177 2995-1848 1848-2995 4389-2995 7177v161249c0 2788 1147 5330 2995 7177 1847 1848 4389 2995 7177 2995h279123c2788 0 5330-1147 7177-2995 1848-1847 2995-4389 2995-7177V126645c0-2788-1147-5330-2995-7177-1847-1848-4389-2995-7177-2995zm-76698 43719c26650 0 48254 21604 48254 48254s-21604 48254-48254 48254-48254-21604-48254-48254 21604-48254 48254-48254zm0 34062c7838 0 14193 6354 14193 14193 0 7838-6354 14193-14193 14193s-14193-6354-14193-14193 6354-14193 14193-14193z"/></svg>