<svg fill="#c5c5c5" xmlns="http://www.w3.org/2000/svg" viewBox="0 0 3095 3333" shape-rendering="geometricPrecision" text-rendering="geometricPrecision" image-rendering="optimizeQuality" fill-rule="evenodd" clip-rule="evenodd"><path d="M1285 1282c0-40 33-73 73-73s73 33 73 73v761h432c40 0 73 33 73 73s-33 73-73 73h-505c-40 0-73-33-73-73v-834zm779-270c-37 17-80 1-96-36-17-37-1-80 36-96l585-267-340-498c-23-33-14-79 19-101 33-23 79-14 101 19l389 569c2 3 4 7 6 11 17 37 1 80-36 96l-664 303zm886 1024c7-40 45-66 85-58 40 7 66 45 58 85-16 85-39 169-70 253-30 81-67 160-112 238-215 373-562 624-947 727-384 103-807 60-1179-153-3-2-7-4-10-6-370-216-619-561-722-945S-7 1370 206 998c2-3 4-7 6-10 216-370 560-619 945-722s810-59 1184 156c35 20 47 64 27 99s-64 47-99 27c-338-195-724-235-1073-141-350 94-664 321-859 659s-235 723-141 1073 321 664 659 859 723 235 1073 141 664-321 859-659c40-70 74-142 102-216 28-75 49-151 64-229z" fill-rule="nonzero"/></svg>