<svg xmlns="http://www.w3.org/2000/svg" viewBox="0 0 3118 3197" shape-rendering="geometricPrecision" text-rendering="geometricPrecision" image-rendering="optimizeQuality" fill-rule="evenodd" clip-rule="evenodd" fill=""><path d="M1257 0c347 0 661 141 889 368 227 227 368 542 368 889 0 333-130 636-341 861 4 3 8 6 11 9l905 904c38 38 38 99 0 137s-99 38-137 0l-905-904c-6-6-11-12-15-19-214 168-483 268-776 268-347 0-661-141-889-368C140 1918-1 1603-1 1256s141-661 368-889C594 140 909-1 1256-1zm748 509c-192-192-456-310-748-310S700 317 509 509c-192 192-310 456-310 748s118 557 310 748c192 192 456 310 748 310s557-118 748-310c192-192 310-456 310-748s-118-557-310-748z" fill-rule="nonzero"/></svg>