<svg xmlns="http://www.w3.org/2000/svg"  fill="#ffffff" viewBox="0 0 1333.33 1329.17" shape-rendering="geometricPrecision" text-rendering="geometricPrecision" image-rendering="optimizeQuality" fill-rule="evenodd" clip-rule="evenodd"><path d="M890.55 440.7c52.29 52.29 78.43 120.82 78.43 189.36 0 68.53-26.15 137.07-78.43 189.36a269.072 269.072 0 01-43.48 35.27c-75.02-5.45-158.3-60.61-226.83-132.74-70.74-74.43-124.95-165.94-138.37-239.71-.29-1.6-.56-3.19-.81-4.77a268.399 268.399 0 0130.77-36.77c52.29-52.29 120.83-78.43 189.36-78.44 68.54 0 137.07 26.15 189.36 78.44zm289.29-32.72h47.75v15.95c119.5 27.35 133.17 84.74 63.85 175.17 7.38-89.72-1.66-108.98-63.85-113.14v226.82c.11 1.19.17 2.39.17 3.63 0 29.48-30.93 58.73-69.08 65.32-38.15 6.59-69.09-11.97-69.09-41.45 0-40.23 55.25-75.14 90.25-62.83V407.97zm-149.17 516.79c31.65 0 57.31 25.66 57.31 57.31 0 31.65-25.66 57.31-57.31 57.31-31.65 0-57.31-25.66-57.31-57.31 0-31.65 25.66-57.31 57.31-57.31zM788.89 116.23h22.52v7.53c56.36 12.9 62.81 39.96 30.11 82.62 3.48-42.32-.78-51.4-30.11-53.36V260c.06.56.08 1.13.08 1.71 0 13.9-14.59 27.7-32.58 30.81-17.99 3.11-32.59-5.65-32.59-19.55 0-18.98 26.06-35.44 42.57-29.63v-127.1zM347.06 237.52c8.35-1.44 16.22-1.21 23.13.41V75.54l-171.82 49.35v188.58c.1 1.03.15 2.08.15 3.13v.02c0 25.39-26.65 50.59-59.51 56.27-32.85 5.67-59.51-10.32-59.51-35.71s26.65-50.58 59.51-56.26c12.37-2.13 23.86-1.2 33.38 2.15V50.95h1.44L396.17.01v261.52c.39 1.91.59 3.86.59 5.81v.02c0 21.21-22.27 42.26-49.71 47-27.45 4.75-49.71-8.61-49.71-29.82s22.26-42.25 49.71-47zM72.91 1291.98c-12.62 11.72-27 20.81-42.9 27.6-32.13 13.74-36.81 16.15-21.89-16.17 7.8-16.91 17.72-32.4 30.06-46.2-13.74-14.77-20.81-28.62-22.88-44.64-2.11-16.37 1.48-32.87 8.69-53.81 23.46-68.2 215.75-303.28 335.46-449.63 30.69-37.52 56.44-69.01 74.22-91.49 1.29-27.97 6.94-55.77 16.95-82.3 26.29 71.54 77.06 149.5 139.09 214.77 57.33 60.32 124.69 110.33 192 135.39a268.203 268.203 0 01-72.11 12.21c-19.43 15.34-47.18 37.81-80.92 65.15-147.37 119.34-404.7 327.74-459.07 344.13-19.43 5.85-35.55 9.09-51.45 7.26-16.25-1.86-30.63-8.56-45.26-22.27zm364.99-612.9c-13.33 16.4-29.02 35.57-46.17 56.54C273.92 879.64 84.69 1111 63.56 1172.41c-5.23 15.19-7.94 26.27-6.83 34.84.97 7.49 5.54 14.94 14.93 24.33l27.9 27.89c8.43 8.43 15.76 12.37 23.36 13.25 9.06 1.04 20.32-1.43 34.68-5.76 46.54-14.03 299.74-219.07 444.74-336.49 17.24-13.97 33.02-26.74 46.64-37.74-50.25-9.94-98.2-34.38-137.14-73.31-39.76-39.76-64.41-88.93-73.93-140.35h-.01z"/></svg>