<svg xmlns="http://www.w3.org/2000/svg" fill="#ffffff" width="64" height="64" shape-rendering="geometricPrecision" text-rendering="geometricPrecision" image-rendering="optimizeQuality" fill-rule="evenodd" clip-rule="evenodd" viewBox="0 0 640 640"><path d="M26.469 180.357h108.06a4.126 4.126 0 0 1 4.122 4.122v233.802c0 2.268-1.854 4.11-4.122 4.11H26.409C11.883 422.391 0 410.51 0 395.981V206.839c0-14.575 11.906-26.481 26.469-26.481zm383.934 20.138c-.874-1.252-1.772-2.48-2.67-3.709l.166-.13-.46-.661-3.461-5.126 4.984-3.685 23.303-9.886 5.422-4.028 3.803 5.575c14.055 20.61 24.685 43.654 31.134 68.245 6.213 23.717 8.575 48.886 6.378 74.682-1.689 19.914-5.988 39.012-12.52 56.954-6.732 18.484-15.886 35.8-27.024 51.567l-4.807 6.803-5.421-6.354-21.119-13.051-3.177-3.733 2.74-4.075a190.487 190.487 0 0 0 21.745-43.205c5.244-14.906 8.705-30.803 10.122-47.41 1.89-22.276-.106-43.961-5.433-64.383a190.567 190.567 0 0 0-23.705-54.39zM568.129 77.269c26.209 36.993 46.11 78.65 58.24 123.261 11.694 43.005 16.194 88.725 12.202 135.651-3.638 42.875-14.115 83.588-30.249 121.183-13.535 31.548-31.087 60.851-51.945 87.332-3.225 4.3-6.544 8.54-9.945 12.709l-.26-.284a370.023 370.023 0 0 1-4.902 5.61l-4.937 5.564-4.83-5.67-19.477-22.878-3.59-4.228 3.649-4.193a347.162 347.162 0 0 0 57.804-92.683c13.901-32.894 22.937-68.528 26.114-106.088 3.555-41.74-.401-82.37-10.748-120.533-9.555-35.315-24.579-68.54-44.138-98.623l-.095-.13a345.008 345.008 0 0 0-11.114-15.272l.413-.342-.26-.366 5.056-3.756 3.697-2.752 14.185-11.469.472.603 5.504-4.087 5.327-3.957 3.827 5.398zm-2.894 18.78a334.514 334.514 0 0 0-3.91-5.835l-.141.095a386.487 386.487 0 0 1 4.051 5.74zm-55.347 39.366c19.252 27.603 33.839 58.62 42.721 91.773 8.563 31.985 11.835 65.942 8.882 100.75-2.528 29.716-9.437 58.098-20.044 84.52a292.205 292.205 0 0 1-43.937 74.883l-4.914 6.082-5.078-5.964-24.674-17.22-3.425-4.04 3.26-4.158c15.2-19.441 27.709-41.138 36.886-64.548 8.882-22.642 14.693-46.985 16.855-72.544 2.61-30.615-.225-60.402-7.678-88.371-7.027-26.375-18.189-51.225-32.788-73.761a272.015 272.015 0 0 0-6-8.256l.272-.224-2.386-3.45 5.044-3.732 27.827-13.24 5.374-3.98 3.803 5.48zm-15.248 15.402l-1.618-2.48-.083.059 1.7 2.421zm-335.036 25.24C222.569 141.51 285.546 106.963 348.5 72.416c6.047-3.32 12.543 5.645 12.543 12.531v428.97c0 7.252-6.886 16.772-13.205 13.205L159.603 420.962c-1.193-.673-2.504-1.122-2.504-2.504V178.573c0-1.393 1.3-1.842 2.504-2.515z"/></svg>