<svg xmlns="http://www.w3.org/2000/svg" fill="#ffffff" width="64" height="64" shape-rendering="geometricPrecision" text-rendering="geometricPrecision" image-rendering="optimizeQuality" fill-rule="evenodd" clip-rule="evenodd" viewBox="0 0 640 640"><path d="M35.516 159.781H180.44a5.535 5.535 0 0 1 5.528 5.528v313.61c0 3.035-2.48 5.515-5.528 5.515H35.421c-19.488 0-35.433-15.933-35.433-35.421V195.285c0-19.536 15.98-35.505 35.528-35.505zm514.967 27.012a379.424 379.424 0 0 0-3.579-4.972l.213-.178-.602-.885-4.654-6.875 6.685-4.948 27.697-13.252 7.264-5.41 5.09 7.488c18.863 27.627 33.131 58.56 41.765 91.525 8.339 31.807 11.504 65.564 8.563 100.182-2.267 26.693-8.02 52.312-16.795 76.383-9.036 24.815-21.308 48.036-36.237 69.178l-6.449 9.13-7.276-8.528-24.756-17.504-4.264-5.008 3.686-5.469a254.651 254.651 0 0 0 29.15-57.957c7.039-20.008 11.693-41.304 13.57-63.58 2.552-29.882-.141-58.973-7.263-86.375-6.792-26.055-17.623-50.658-31.808-72.945zM214.09 154.03c84.45-46.347 168.912-92.694 253.373-139.03 8.103-4.44 16.808 7.572 16.808 16.82V607.2c0 9.732-9.213 22.477-17.705 17.693L214.089 482.521c-1.607-.91-3.367-1.512-3.367-3.366V157.383c0-1.854 1.737-2.469 3.367-3.354z"/></svg>