<svg xmlns="http://www.w3.org/2000/svg" width="64" fill="#ffffff" height="64" shape-rendering="geometricPrecision" text-rendering="geometricPrecision" image-rendering="optimizeQuality" fill-rule="evenodd" clip-rule="evenodd" viewBox="0 0 640 640"><path d="M36.567 155.033h149.246a5.696 5.696 0 0 1 5.693 5.693v229.621l-98.989 98.99H36.485C16.418 489.336 0 472.93 0 452.851V191.6c0-20.115 16.453-36.568 36.567-36.568zm543.09-118.714l60.355 60.355L154.75 581.936l-60.356-60.355L579.656 36.319zM220.454 149.104C307.433 101.387 394.386 53.67 481.352 5.953c8.35-4.583 17.316 7.784 17.316 17.315v59.918L216.995 364.86V152.565c0-1.913 1.795-2.54 3.46-3.46zm278.212 124.95v341.685c0 10.016-9.496 23.162-18.224 18.225L261.96 510.762l236.708-236.708z"/></svg>