<!-- Generated by IcoMoon.io -->
<svg version="1.1" xmlns="http://www.w3.org/2000/svg" width="448" height="448" viewBox="0 0 448 448">
<title></title>
<g id="icomoon-ignore">
</g>
<path fill="#ffb515" d="M224 0c123.75 0 224 100.25 224 224 0 123-99.75 224-224 224-124 0-224-100.75-224-224 0-123.75 100.25-224 224-224zM378.75 337.75c23.25-32 37.25-71.25 37.25-113.75 0-105.75-86.25-192-192-192s-192 86.25-192 192c0 42.5 14 81.75 37.25 113.75 9-44.75 30.75-81.75 76.5-81.75 20.25 19.75 47.75 32 78.25 32s58-12.25 78.25-32c45.75 0 67.5 37 76.5 81.75zM320 176c0-53-43-96-96-96s-96 43-96 96 43 96 96 96 96-43 96-96z"></path>
</svg>
