<?xml version="1.0" encoding="utf-8"?><svg version="1.1" id="Layer_1" xmlns="http://www.w3.org/2000/svg" xmlns:xlink="http://www.w3.org/1999/xlink" x="0px" y="0px" viewBox="0 0 115.69 122.88" style="enable-background:new 0 0 115.69 122.88" xml:space="preserve" fill="#ffffff"><g><path d="M62.99,110.97c1.45-0.14,4.76-10.03,5.54-11.96c-2.68-3.43-4.82-8.23-6.49-11.94c-0.73-1.64-1.37-3.06-1.91-4.06 l-0.04-0.08c-0.91-1.46-1.38-2.87-1.5-4.15c-0.14-1.45,0.17-2.76,0.76-3.81c0.24-0.42,0.52-0.79,0.83-1.13 c0.32-0.34,0.69-0.63,1.08-0.87c0.39-0.24,0.82-0.43,1.26-0.57c0.44-0.13,0.9-0.2,1.37-0.22c1.11-0.03,2.27,0.28,3.35,1.01 c0.97,0.65,1.87,1.63,2.62,2.99l0.59,1.07c0.25,0.44,0.54,0.96,0.85,1.47l0.34-1.17c0.06-0.22,0.13-0.43,0.21-0.64 c0.08-0.21,0.17-0.42,0.26-0.63l7.08-24.53c0.21-0.71,0.55-1.35,0.98-1.9c0.45-0.57,1.02-1.04,1.64-1.38 c0.63-0.35,1.32-0.57,2.05-0.65c0.7-0.08,1.42-0.03,2.13,0.18c0.54,0.16,1.04,0.39,1.48,0.68c0.4,0.26,0.75,0.57,1.07,0.91 l0.27-0.92c0.21-0.71,0.55-1.35,0.98-1.9c0.46-0.57,1.02-1.04,1.65-1.39c0.63-0.35,1.32-0.57,2.05-0.66 c0.7-0.08,1.42-0.02,2.13,0.18c0.71,0.21,1.35,0.55,1.9,0.98c0.57,0.46,1.04,1.02,1.39,1.64c0.35,0.63,0.57,1.32,0.66,2.05 c0.08,0.69,0.02,1.42-0.18,2.13l-0.26,0.9c0.46-0.14,0.94-0.21,1.42-0.22c0.55-0.01,1.11,0.06,1.65,0.21l0.01,0 c0.72,0.21,1.36,0.55,1.9,0.98c0.57,0.45,1.04,1.02,1.38,1.64c0.35,0.63,0.57,1.32,0.66,2.05c0.08,0.7,0.02,1.42-0.18,2.13 l-0.34,1.18c0.44-0.11,0.89-0.18,1.35-0.18c0.52,0,1.04,0.06,1.56,0.21c0.71,0.21,1.35,0.55,1.9,0.98 c0.22,0.17,0.42,0.36,0.61,0.57c0.02-0.22,0.03-0.45,0.05-0.67c0.08-1.17,0.12-2.39,0.12-3.66c0-14.73-5.97-28.07-15.63-37.73 c-9.66-9.66-23-15.63-37.73-15.63c-14.73,0-28.07,5.97-37.73,15.63c-9.66,9.66-15.63,23-15.63,37.73 c0,14.73,5.97,28.07,15.63,37.73c9.66,9.66,23,15.63,37.73,15.63c0.95,0,1.81-0.02,2.58-0.05 C61.3,111.11,62.15,111.04,62.99,110.97L62.99,110.97z M61.81,115.55c-0.39,0.03-0.79,0.05-1.18,0.07 c-1.01,0.05-1.94,0.07-2.79,0.07c-15.97,0-30.43-6.47-40.9-16.94C6.47,88.28,0,73.82,0,57.84s6.47-30.43,16.94-40.9 C27.41,6.47,41.87,0,57.84,0c15.97,0,30.43,6.47,40.9,16.94c10.47,10.47,16.94,24.93,16.94,40.9c0,12.63-2.28,18.18-8.99,28.76 c-0.06,0.33-0.14,0.67-0.23,1.01l-2.79,9.69c-0.82,2.84-2.83,4.93-4.86,7.05c-0.71,0.74-1.42,1.48-2.09,2.26 c-3.8,22.04-36.29,17.57-35.51,10.42L61.81,115.55L61.81,115.55z M104.57,84.49c0.74-0.71,5.54-15.6,5.13-17.8 c0.1-0.36,0.13-0.73,0.09-1.08l0,0c-0.04-0.37-0.16-0.73-0.33-1.05c-0.18-0.32-0.42-0.61-0.71-0.84c-0.28-0.22-0.61-0.4-0.97-0.5 c-0.36-0.1-0.73-0.13-1.09-0.09c-0.37,0.04-0.73,0.16-1.05,0.34c-0.32,0.18-0.61,0.42-0.84,0.71c-0.22,0.28-0.4,0.61-0.5,0.97 l-3.22,11.17c-0.02,0.07-0.09,0.1-0.15,0.09l-2.35-0.68c-0.07-0.02-0.1-0.09-0.09-0.15l4.87-16.89c0.1-0.36,0.13-0.73,0.09-1.09 c-0.04-0.37-0.16-0.72-0.33-1.04l0-0.01c-0.18-0.32-0.42-0.61-0.71-0.84c-0.28-0.22-0.61-0.4-0.97-0.5 c-0.36-0.1-0.73-0.13-1.09-0.09c-0.37,0.04-0.73,0.16-1.05,0.34c-0.32,0.18-0.61,0.42-0.84,0.71c-0.22,0.28-0.4,0.61-0.5,0.97 L93.1,74c-0.02,0.07-0.09,0.1-0.15,0.08l-2.48-0.72c-0.07-0.02-0.1-0.09-0.08-0.15l6.42-22.25c0.1-0.36,0.13-0.73,0.09-1.09 c-0.04-0.37-0.16-0.73-0.34-1.05c-0.18-0.32-0.42-0.61-0.71-0.84c-0.28-0.22-0.61-0.4-0.97-0.5c-0.36-0.1-0.73-0.13-1.09-0.09 c-0.37,0.04-0.73,0.16-1.05,0.34c-0.32,0.18-0.61,0.42-0.84,0.71c-0.22,0.28-0.4,0.61-0.5,0.97l-6.42,22.25 c-0.02,0.07-0.09,0.1-0.15,0.09l-2.43-0.7c-0.07-0.02-0.1-0.09-0.09-0.15l4.86-16.84c0.1-0.36,0.13-0.73,0.09-1.09 c-0.04-0.37-0.16-0.72-0.33-1.04l0-0.01c-0.18-0.32-0.42-0.61-0.71-0.84c-0.28-0.22-0.61-0.4-0.97-0.5 c-0.36-0.1-0.73-0.13-1.09-0.09c-0.37,0.04-0.73,0.16-1.05,0.33c-0.32,0.18-0.61,0.42-0.84,0.71c-0.22,0.28-0.4,0.61-0.5,0.97 c-1.27,4.39-2.52,8.69-3.78,12.98c-1.25,4.28-2.5,8.56-3.73,12.83l-1.62,4.55c-0.01,0.04-0.05,0.08-0.1,0.09l-1.06,0.19l-0.06,0 c-0.12-0.04-0.24-0.09-0.35-0.16l0,0c-0.11-0.07-0.21-0.16-0.29-0.26c-0.24-0.24-0.52-0.61-0.81-1.05l-0.01-0.01 c-0.29-0.44-0.61-0.95-0.92-1.46c-0.64-1.08-1.28-2.24-1.53-2.69l-0.01-0.02c-0.49-0.89-1.05-1.54-1.63-1.96 c-0.64-0.47-1.3-0.67-1.91-0.65c-0.23,0.01-0.45,0.04-0.66,0.11c-0.22,0.07-0.43,0.16-0.62,0.28c-0.2,0.12-0.38,0.27-0.55,0.45 c-0.16,0.17-0.31,0.37-0.43,0.59c-0.36,0.64-0.53,1.47-0.41,2.42c0.11,0.85,0.45,1.8,1.09,2.81c0.04,0.06,0.07,0.12,0.11,0.19 c0.35,0.63,0.92,1.85,1.66,3.39c1.92,4.03,4.91,10.3,7.42,13.97c0.02,0.03,0.03,0.08,0.01,0.12l-7.97,18.87 c8.9,3.21,25.3,4.69,30.56-12.2c0.02-0.12,0.05-0.23,0.1-0.34c0.05-0.11,0.12-0.22,0.2-0.32c0.42-0.49,0.93-1.05,1.5-1.67 c1.99-2.18,4.55-4.98,5.12-6.98L104.57,84.49L104.57,84.49z M31.94,51.6c-0.4,1.17-1.67,1.79-2.84,1.38 c-1.17-0.4-1.79-1.67-1.38-2.84c1.63-4.7,4.22-8.95,7.52-12.51c3.32-3.57,7.37-6.46,11.92-8.43c1.13-0.49,2.45,0.03,2.94,1.17 c0.49,1.13-0.03,2.45-1.17,2.94c-3.96,1.72-7.51,4.25-10.42,7.38C35.62,43.8,33.36,47.51,31.94,51.6L31.94,51.6z M19.67,49.29 c-0.3,1.2-1.53,1.93-2.72,1.62c-1.2-0.3-1.93-1.53-1.62-2.72c1.86-7.28,5.48-13.85,10.39-19.23c4.94-5.42,11.17-9.63,18.2-12.15 c1.17-0.42,2.45,0.19,2.87,1.36c0.42,1.17-0.19,2.45-1.36,2.87c-6.34,2.27-11.96,6.06-16.4,10.94 C24.6,36.82,21.34,42.74,19.67,49.29L19.67,49.29z M57.84,45.44c3.43,0,6.53,1.39,8.77,3.63c2.25,2.24,3.63,5.35,3.63,8.77 c0,3.42-1.39,6.52-3.63,8.76l-0.01,0.01c-2.25,2.24-5.34,3.63-8.76,3.63c-3.42,0-6.52-1.39-8.76-3.63l-0.01-0.01 c-2.24-2.25-3.63-5.34-3.63-8.76c0-3.43,1.39-6.53,3.63-8.77C51.32,46.83,54.42,45.44,57.84,45.44L57.84,45.44z M63.45,52.24 c-1.43-1.43-3.41-2.32-5.6-2.32c-2.19,0-4.17,0.89-5.6,2.32c-1.43,1.43-2.32,3.41-2.32,5.6c0,2.19,0.89,4.17,2.32,5.61 c1.43,1.43,3.41,2.32,5.61,2.32s4.17-0.88,5.61-2.32c1.43-1.43,2.32-3.41,2.32-5.61C65.76,55.66,64.88,53.68,63.45,52.24 L63.45,52.24z"/></g></svg>