<svg xmlns="http://www.w3.org/2000/svg" fill="#ffffff" viewBox="0 0 333067 333333" shape-rendering="geometricPrecision" text-rendering="geometricPrecision" image-rendering="optimizeQuality" fill-rule="evenodd" clip-rule="evenodd"><path d="M110674 243693c2470 1831 2987 5319 1156 7788-1831 2470-5318 2987-7788 1156-3971-2951-7828-6327-11439-9979l-11-11-11 11c-3598-3637-7016-7631-10121-11826-1831-2470-1314-5957 1156-7788s5957-1313 7788 1157c2701 3649 5780 7230 9117 10604l-11 11c3242 3276 6669 6281 10163 8877zm-17832-75494c-12474-3386-24972-3901-36369-1420-10789 2349-20613 7407-28484 15279-13256 13255-18538 32088-16362 51818 2225 20169 12199 41242 29394 58437l1 1c17195 17194 38269 27169 58437 29393 19730 2176 38562-3106 51817-16361 7773-7774 12802-17433 15191-28039 2525-11213 2135-23508-1050-35806-771-2976 1017-6013 3993-6785 460-119 922-177 1377-179 5883-195 11562-1358 16781-3515 4972-2055 9550-5049 13508-9007 8282-8282 12398-19444 12552-31383 162-12522-3980-25897-12196-37827-1552-2248-1224-5237 644-7100l-11-11 57332-57332c2181-2181 5717-2181 7897 0l2966 2965 15802-15802c146-189 305-371 478-544 174-174 356-333 545-479l20928-20928c146-189 306-372 479-545 174-174 356-333 545-479l7669-7669-28252-28251-46446 46447 2965 2965c2181 2181 2181 5717 0 7897l-57536 57536c-1993 1993-5117 2164-7305 515-11765-7706-24811-11518-37002-11220-11705 286-22625 4400-30763 12539-3886 3886-6843 8363-8892 13220-2160 5119-3356 10709-3609 16523-132 3072-2731 5456-5803 5323-420-19-828-83-1218-189l-4 14zm-38725-12328c11182-2435 23201-2391 35269 43 722-4747 1997-9347 3836-13706 2628-6228 6370-11920 11248-16798 10239-10239 23863-15413 38398-15768 13164-321 27070 3344 39798 10807l50460-50460-2965-2965c-2181-2181-2181-5717 0-7897l16314-16314-11328-11327c-2181-2181-2181-5717 0-7897 2181-2181 5717-2181 7897 0l11328 11327 14054-14054-11327-11327c-2181-2181-2181-5717 0-7897 2181-2181 5717-2181 7897 0l11327 11327 8181-8181c2181-2181 5717-2181 7897 0l36149 36149c2181 2181 2181 5717 0 7897l-8181 8181 11059 11061c2181 2181 2181 5717 0 7897-2181 2181-5717 2181-7897 0l-11059-11061-14055 14054 11060 11060c2181 2181 2181 5717 0 7897-2181 2181-5717 2181-7897 0l-11060-11060-16314 16314c-2181 2181-5717 2181-7898 0l-2966-2965-50200 50200c7846 12846 11782 26969 11609 40356-192 14816-5367 28735-15781 39150-4981 4981-10803 8774-17173 11407-4495 1857-9254 3119-14172 3794 2244 11870 2174 23666-297 34637-2850 12657-8861 24196-18158 33493-15772 15772-37904 22086-60936 19546-22593-2492-46083-13549-65112-32578l-1-1C14091 281182 3034 257692 542 235099c-2541-23032 3774-45165 19546-60937 9436-9436 21168-15490 34026-18289zm108044 15302c-2934-2934-6781-4401-10628-4401s-7694 1467-10628 4401c-2933 2933-4401 6781-4401 10627s1468 7693 4401 10627c2934 2934 6781 4402 10628 4402 3846 0 7694-1468 10628-4402 2934-2933 4401-6780 4401-10628 0-3846-1467-7694-4401-10627zm-10628-15571c6704 0 13409 2558 18525 7673 5116 5116 7674 11821 7674 18525 0 6705-2558 13410-7674 18525-5116 5116-11821 7674-18525 7674s-13409-2558-18525-7674c-5115-5115-7674-11820-7674-18524s2559-13409 7674-18524c5116-5115 11821-7673 18525-7673zm-22757 69988c2470 1831 2987 5318 1157 7788-1831 2470-5319 2987-7788 1156-3971-2951-7828-6328-11440-9979l-11-11-11 11c-3597-3637-7016-7630-10120-11825-1831-2470-1314-5957 1156-7788s5957-1313 7788 1156c2700 3650 5780 7230 9117 10603l-11 11c3242 3276 6670 6281 10163 8878z" fill-rule="nonzero"/></svg>