<?xml version="1.0" encoding="utf-8"?><svg version="1.1" id="Layer_1" xmlns="http://www.w3.org/2000/svg" xmlns:xlink="http://www.w3.org/1999/xlink" x="0px" y="0px" viewBox="0 0 122.88 56.13" style="enable-background:new 0 0 122.88 56.13" xml:space="preserve"><style type="text/css">.st0{fill-rule:evenodd;clip-rule:evenodd;fill: #ffffff}</style><g><path class="st0" d="M29.6,55.86c-7.12-18.6-7-37.21,0-55.81c9.56,10.82,18.18,17.01,26.55,17.97c13.06,1.49,26.27,0.63,39.4,0.45 c4.14,0.05,7.62,1.52,9.62,6.78c23.28-16.81,23.82,23.86,0.41,7.99v5.01c-1.15,16.7-42.73,18.35-45.74-0.76 C48.37,37.1,36.68,47.99,29.6,55.86L29.6,55.86z M13.79,25.67c0.95,0,1.72,0.77,1.72,1.72c0,0.95-0.77,1.72-1.72,1.72H1.72 C0.77,29.12,0,28.34,0,27.39c0-0.95,0.77-1.72,1.72-1.72H13.79L13.79,25.67z M15.3,36.86c0.92-0.23,1.85,0.33,2.08,1.25 c0.23,0.92-0.33,1.85-1.25,2.08L4.05,43.23c-0.92,0.23-1.85-0.33-2.08-1.25c-0.23-0.92,0.33-1.85,1.25-2.08L15.3,36.86L15.3,36.86z M18.48,48.13c0.89-0.33,1.88,0.12,2.21,1.01c0.33,0.89-0.12,1.88-1.01,2.21L7.15,56.02c-0.89,0.33-1.88-0.12-2.21-1.01 c-0.33-0.89,0.12-1.88,1.01-2.21L18.48,48.13L18.48,48.13z M15.1,14.76c0.93,0.19,1.53,1.1,1.34,2.02 c-0.19,0.93-1.1,1.53-2.02,1.34L3.43,15.87c-0.93-0.19-1.53-1.1-1.34-2.02c0.19-0.93,1.1-1.53,2.02-1.34L15.1,14.76L15.1,14.76z M18.61,3.6c0.91,0.27,1.42,1.23,1.14,2.14c-0.27,0.91-1.23,1.42-2.14,1.14L6.09,3.36C5.19,3.08,4.68,2.12,4.95,1.22 C5.23,0.31,6.18-0.2,7.09,0.07L18.61,3.6L18.61,3.6z M66.2,37.08h32.79C98.99,49.65,66.2,48.77,66.2,37.08L66.2,37.08z"/></g></svg>