<?xml version="1.0" encoding="utf-8"?><svg version="1.1" id="Layer_1" xmlns="http://www.w3.org/2000/svg" xmlns:xlink="http://www.w3.org/1999/xlink" x="0px" y="0px" viewBox="0 0 122.61 122.88" style="enable-background:new 0 0 122.61 122.88" xml:space="preserve"><style type="text/css">.st0{fill-rule:evenodd;clip-rule:evenodd;fill:#ffffff}</style><g><path class="st0" d="M112.67,9.95C106.04,3.32,97.35,0,88.65,0c-8.69,0-17.38,3.32-24.01,9.95c-1.71,1.71-3.2,3.56-4.47,5.51 c0.69,9.51,7.69,20.07,16.83,28.77c9.44,8.97,21.04,15.85,30.4,17.55c0.2,0.04,0.4,0.07,0.6,0.1c1.64-1.14,3.2-2.44,4.66-3.9 c6.63-6.63,9.95-15.32,9.95-24.01C122.61,25.27,119.3,16.58,112.67,9.95L112.67,9.95z M4.72,113.63c-1.49,1.6-2.64,3.42-3.5,5.44 c-1.74,4.07-2.05,4.67,2.05,2.78c2.14-0.99,4.11-2.25,5.86-3.81c1.87,1.74,3.63,2.64,5.66,2.9c2.08,0.27,4.17-0.19,6.82-1.1 c8.65-2.98,38.46-27.36,57.02-42.54c4.76-3.89,8.75-7.16,11.6-9.41c3.55-0.16,7.07-0.88,10.44-2.15 c-9.07-3.33-18.96-9.77-27.24-17.64c-7.65-7.27-13.99-15.81-17.17-24.35c-0.94,2.98-1.45,6.05-1.55,9.14 c-1.95,2.46-4.8,5.98-8.26,10.26C31.32,61.84,4.89,94.47,2.81,101.37c-0.74,2.46-1.15,4.51-0.92,6.52 C2.13,109.95,2.98,111.78,4.72,113.63L4.72,113.63z M82.44,67.35c-2.08,1.69-4.51,3.68-7.17,5.85 C57,88.14,27.67,112.14,19.88,114.82c-1.93,0.66-3.33,1.01-4.42,0.87c-0.95-0.12-1.9-0.7-3.09-1.89l-3.54-3.54 c-1.07-1.07-1.57-2-1.68-2.96c-0.13-1.15,0.18-2.58,0.73-4.4c1.78-5.9,27.78-38.01,42.67-56.4c1.77-2.19,3.39-4.19,4.79-5.91 c1.26,6.37,4.36,12.45,9.3,17.39C69.68,63.02,75.92,66.14,82.44,67.35L82.44,67.35z"/></g></svg>