<svg width="122.88" height="92.04" xmlns="http://www.w3.org/2000/svg">
 <title>noise</title>

 <g>
  <title>background</title>
  <rect fill="none" id="canvas_background" height="514" width="514" y="-1" x="-1"/>
 </g>
 <g>
  <title>Layer 1</title>
  <path fill="#ffffff" id="svg_1" d="m90.14,23.41a5.14,5.14 0 0 1 8.78,-3.63l0,0a5.13,5.13 0 0 1 1.51,3.63l0,45.28a5.14,5.14 0 0 1 -8.78,3.64l0,0a5.12,5.12 0 0 1 -1.51,-3.63l0,-45.29zm-90.14,-5.19a5.12,5.12 0 0 1 1.51,-3.63l0,0a5.15,5.15 0 0 1 8.78,3.64l0,55.6a5.16,5.16 0 0 1 -1.51,3.64l0,0a5.15,5.15 0 0 1 -8.78,-3.64l0,-55.61zm22.59,-13.08a5.13,5.13 0 0 1 1.5,-3.63l0,0a5.14,5.14 0 0 1 8.77,3.63l0,81.76a5.14,5.14 0 0 1 -8.77,3.64l0,0a5.11,5.11 0 0 1 -1.5,-3.63l0,-81.77zm45.05,28.79a5.13,5.13 0 0 1 1.5,-3.63l0,0a5.14,5.14 0 0 1 7.26,0l0,0a5.14,5.14 0 0 1 1.5,3.63l0,24.23a5.15,5.15 0 0 1 -1.5,3.64l0,0a5.13,5.13 0 0 1 -7.26,0l0,0a5.11,5.11 0 0 1 -1.5,-3.63l0,-24.24zm-22.51,-15.68a5.14,5.14 0 0 1 1.51,-3.64l0,0a5.15,5.15 0 0 1 8.78,3.64l0,55.61a5.12,5.12 0 0 1 -1.51,3.63l0,0a5.15,5.15 0 0 1 -8.78,-3.64l0,-55.6zm67.57,-6.25a5.09,5.09 0 0 1 1.49,-3.61l0.11,-0.1a5,5 0 0 1 7.1,0.1a5.13,5.13 0 0 1 1.48,3.61l0,68a5.17,5.17 0 0 1 -1.48,3.62l-0.11,0.1a5,5 0 0 1 -7.1,-0.1a5.14,5.14 0 0 1 -1.49,-3.62l0,-68z"/>
 </g>
</svg>