<?xml version="1.0" encoding="utf-8"?><svg version="1.1" id="Layer_1" xmlns="http://www.w3.org/2000/svg" xmlns:xlink="http://www.w3.org/1999/xlink" x="0px" y="0px" viewBox="0 0 122.88 116.12" style="enable-background:new 0 0 122.88 116.12" xml:space="preserve"><style type="text/css">.st0{fill-rule:evenodd;clip-rule:evenodd;fill:#ffffff}</style><g><path class="st0" d="M84.61,51.83c13.81,0,25.01,11.2,25.01,25.01s-11.2,25.01-25.01,25.01s-25.01-11.2-25.01-25.01 S70.8,51.83,84.61,51.83L84.61,51.83z M12.53,36.69c0.28-0.27,0.63-0.49,1.02-0.64L42.4,25.29c0.63-0.23,1.29-0.24,1.89-0.06 c0.19-0.15,0.4-0.28,0.64-0.36l18.39-6.9c0.41-0.15,0.84-0.18,1.24-0.1c0.03-0.02,0.07-0.03,0.1-0.04l18.85-7.36 c0.53-0.21,1.1-0.17,1.57,0.06c0.06-0.04,0.13-0.07,0.21-0.1l19-7.32c0.08-0.03,0.16-0.05,0.24-0.07c0.11-1.7,1.52-3.04,3.24-3.04 c1.8,0,3.25,1.46,3.25,3.25s-1.46,3.25-3.25,3.25c-0.94,0-1.78-0.4-2.37-1.03c-0.06,0.03-0.12,0.06-0.18,0.08l-19,7.32 c-0.04,0.02-0.09,0.03-0.13,0.04c-0.18,0.54-0.58,1-1.15,1.22l-18.85,7.36c-0.07,0.03-0.13,0.05-0.2,0.07 c-0.25,0.31-0.58,0.56-0.98,0.71l-18.39,6.9c-0.14,0.05-0.28,0.09-0.42,0.11c-0.31,0.69-0.89,1.25-1.65,1.53l-15.78,5.89h84.21 c2.75,0,5.25,1.12,7.06,2.93c1.81,1.81,2.93,4.31,2.93,7.06v59.44c0,2.75-1.12,5.25-2.93,7.06c-1.81,1.81-4.31,2.93-7.06,2.93H9.99 c-2.75,0-5.25-1.12-7.06-2.93C1.12,111.38,0,108.88,0,106.13V46.69c0-2.75,1.12-5.25,2.93-7.06c1.81-1.81,4.31-2.93,7.06-2.93 H12.53L12.53,36.69z M13.79,88.93c-1.45,0-2.63-1.18-2.63-2.63s1.18-2.63,2.63-2.63h32.28c1.45,0,2.63,1.18,2.63,2.63 s-1.18,2.63-2.63,2.63H13.79L13.79,88.93z M13.79,98.89c-1.45,0-2.63-1.18-2.63-2.63c0-1.45,1.18-2.63,2.63-2.63h39.15 c1.45,0,2.63,1.18,2.63,2.63c0,1.45-1.18,2.63-2.63,2.63H13.79L13.79,98.89z M13.79,59.06c-1.45,0-2.63-1.18-2.63-2.63 c0-1.45,1.18-2.63,2.63-2.63h38.03c1.45,0,2.63,1.18,2.63,2.63c0,1.45-1.18,2.63-2.63,2.63H13.79L13.79,59.06z M13.79,69.02 c-1.45,0-2.63-1.18-2.63-2.63c0-1.45,1.18-2.63,2.63-2.63h32.28c1.45,0,2.63,1.18,2.63,2.63c0,1.45-1.18,2.63-2.63,2.63H13.79 L13.79,69.02z M13.79,78.98c-1.45,0-2.63-1.18-2.63-2.63c0-1.45,1.18-2.63,2.63-2.63h30.84c1.45,0,2.63,1.18,2.63,2.63 c0,1.45-1.18,2.63-2.63,2.63H13.79L13.79,78.98z M112.89,42.94H9.99c-1.03,0-1.96,0.42-2.65,1.1c-0.68,0.68-1.1,1.62-1.1,2.65 v59.44c0,1.03,0.42,1.96,1.1,2.65c0.68,0.68,1.62,1.1,2.65,1.1h102.9c1.03,0,1.96-0.42,2.65-1.1c0.68-0.68,1.1-1.62,1.1-2.65V46.69 c0-1.03-0.42-1.96-1.1-2.65C114.85,43.36,113.92,42.94,112.89,42.94L112.89,42.94z M84.61,59.05c9.82,0,17.79,7.96,17.79,17.79 c0,9.82-7.96,17.79-17.79,17.79s-17.79-7.96-17.79-17.79C66.83,67.02,74.79,59.05,84.61,59.05L84.61,59.05z M84.61,71.61 c2.89,0,5.23,2.34,5.23,5.23c0,2.89-2.34,5.23-5.23,5.23s-5.23-2.34-5.23-5.23C79.38,73.95,81.72,71.61,84.61,71.61L84.61,71.61z"/></g></svg>