<?xml version="1.0" encoding="utf-8"?><svg version="1.1" id="Layer_1" xmlns="http://www.w3.org/2000/svg" xmlns:xlink="http://www.w3.org/1999/xlink" x="0px" y="0px" viewBox="0 0 122.88 84.05" style="enable-background:new 0 0 122.88 84.05" xml:space="preserve" fill="#ffffff"><g><path d="M24.68,53.73v26.71h3.56l4.69-5.15h-2.49v-3.15h7.7l-8.68-9.63l2.34-2.1l5.26,5.82V66h12.87c0.56,0,1.06,0.3,1.34,0.75 l3.8,5.38h7.15c0.47,0,0.9,0.21,1.19,0.54l7.83,7.76h13.2c6.28-18.2,10.48-39.14,5.06-55.53c-9.72,4.42-12.05,15.57-13.22,29.13 l0,0c-3.79-9.4-6.16-17.98-0.81-27.68c-5.11,0.55-9.91,3.58-15.01,8.25c4.22-9.03,11.05-15.9,23.24-14.35 c-6.79-4.55-14.85-3.79-22.63-1.97c8.11-8.53,16.89-12.12,27.44-2.43C88.86,10,86.42,4.9,83.21,0c6.84,2.71,11.95,5.69,10.35,18.06 c11.67-9.86,24.74-5.68,29.32,11.59c-8.55-7.57-17.67-11.41-27.4-8.4c17.01,6.37,21.56,16.17,14.4,29.53 c-5.11-12.88-10.44-21-16.42-24.77c3.77,9.5,6.92,25.44,0.83,54.42h15.74v3.61H0v-3.61h21.3V53.73H1.43 c-0.67,0-1.23-0.54-1.23-1.23c0-0.04,0-0.08,0.01-0.12c0.05-6.11,2.6-11.64,6.7-15.64c4.04-3.94,9.59-6.41,15.71-6.5 c0.12-0.04,0.25-0.06,0.38-0.06c0.13,0,0.26,0.02,0.38,0.06c6.09,0.11,11.6,2.58,15.62,6.5c4.12,4.03,6.68,9.6,6.7,15.76 c0,0.68-0.54,1.22-1.22,1.22v0.01H24.68L24.68,53.73L24.68,53.73L24.68,53.73z M36.08,6.6c-0.22-0.37-0.09-0.85,0.29-1.07 c0.37-0.22,0.85-0.09,1.07,0.29l1,1.74c0.22,0.37,0.09,0.86-0.29,1.07c-0.37,0.22-0.85,0.09-1.07-0.28L36.08,6.6L36.08,6.6 L36.08,6.6L36.08,6.6z M42.33,9.18c1.93,0,3.69,0.78,4.95,2.05c1.26,1.26,2.05,3.02,2.05,4.95s-0.78,3.68-2.05,4.95 c-1.26,1.27-3.02,2.05-4.95,2.05s-3.68-0.78-4.95-2.05c-1.26-1.26-2.05-3.02-2.05-4.95s0.78-3.68,2.05-4.95 C38.65,9.97,40.4,9.18,42.33,9.18L42.33,9.18L42.33,9.18L42.33,9.18z M41.71,4.76c0-0.43,0.35-0.79,0.79-0.79 c0.43,0,0.79,0.35,0.79,0.79v2.01c0,0.43-0.35,0.79-0.79,0.79c-0.43,0-0.79-0.35-0.79-0.79V4.76L41.71,4.76L41.71,4.76L41.71,4.76z M47.51,5.98c0.22-0.37,0.69-0.5,1.07-0.28c0.37,0.22,0.5,0.69,0.29,1.07l-1,1.74c-0.22,0.37-0.69,0.5-1.07,0.29 c-0.37-0.22-0.5-0.69-0.28-1.07L47.51,5.98L47.51,5.98L47.51,5.98L47.51,5.98z M51.91,9.94c0.37-0.22,0.86-0.09,1.07,0.29 c0.21,0.37,0.09,0.85-0.29,1.07l-1.73,1c-0.37,0.22-0.85,0.09-1.07-0.29c-0.22-0.37-0.09-0.85,0.29-1.07L51.91,9.94L51.91,9.94 L51.91,9.94L51.91,9.94z M53.75,15.56c0.43,0,0.79,0.35,0.79,0.79s-0.35,0.79-0.79,0.79h-2.01c-0.43,0-0.79-0.35-0.79-0.79 s0.35-0.79,0.79-0.79H53.75L53.75,15.56L53.75,15.56L53.75,15.56z M52.53,21.36c0.37,0.22,0.5,0.69,0.29,1.07 c-0.22,0.37-0.69,0.5-1.07,0.29l-1.74-1c-0.37-0.22-0.5-0.69-0.28-1.07c0.22-0.37,0.69-0.5,1.07-0.28L52.53,21.36L52.53,21.36 L52.53,21.36L52.53,21.36z M48.58,25.76c0.22,0.37,0.09,0.86-0.29,1.07c-0.37,0.22-0.86,0.09-1.07-0.29l-1-1.74 c-0.22-0.37-0.09-0.85,0.29-1.07c0.37-0.22,0.85-0.09,1.07,0.29L48.58,25.76L48.58,25.76L48.58,25.76L48.58,25.76z M42.95,27.6 c0,0.43-0.35,0.79-0.79,0.79c-0.43,0-0.78-0.35-0.78-0.79v-2.01c0-0.43,0.35-0.79,0.78-0.79c0.43,0,0.79,0.35,0.79,0.79V27.6 L42.95,27.6L42.95,27.6L42.95,27.6z M37.15,26.38c-0.22,0.37-0.69,0.5-1.07,0.28c-0.37-0.22-0.5-0.69-0.29-1.07l1-1.74 c0.22-0.37,0.69-0.5,1.07-0.29c0.37,0.22,0.5,0.69,0.28,1.07L37.15,26.38L37.15,26.38L37.15,26.38L37.15,26.38z M32.75,22.43 c-0.37,0.22-0.86,0.09-1.07-0.29c-0.22-0.37-0.09-0.85,0.28-1.07l1.74-1c0.37-0.22,0.85-0.09,1.07,0.29 c0.22,0.37,0.09,0.85-0.29,1.07L32.75,22.43L32.75,22.43L32.75,22.43L32.75,22.43z M30.91,16.8c-0.43,0-0.79-0.35-0.79-0.79 c0-0.43,0.35-0.79,0.79-0.79h2.01c0.43,0,0.79,0.35,0.79,0.79c0,0.43-0.35,0.79-0.79,0.79H30.91L30.91,16.8L30.91,16.8L30.91,16.8z M32.13,11.01c-0.37-0.22-0.5-0.69-0.29-1.07c0.22-0.37,0.69-0.5,1.07-0.29l1.74,1c0.37,0.22,0.5,0.69,0.28,1.07 c-0.22,0.37-0.69,0.5-1.07,0.28L32.13,11.01L32.13,11.01L32.13,11.01L32.13,11.01z M32.49,80.44h34.27l-5.2-5.15H37.18L32.49,80.44 L32.49,80.44L32.49,80.44L32.49,80.44z M42.37,72.13h8.83l-2.1-2.98h-9.42L42.37,72.13L42.37,72.13L42.37,72.13L42.37,72.13z M37.3,38.49c-1.66-1.62-3.62-2.97-5.77-3.95c0.83,1.2,1.53,2.57,2.1,4.08c1.33,3.51,1.98,7.83,2.04,12.66h7.54 C42.89,46.29,40.69,41.81,37.3,38.49L37.3,38.49L37.3,38.49L37.3,38.49z M26.54,33c-0.76-0.13-1.53-0.22-2.32-0.27v18.56h9.01 c-0.06-4.53-0.66-8.55-1.89-11.79C30.26,36.6,28.67,34.36,26.54,33L26.54,33L26.54,33L26.54,33z M21.77,32.72 c-0.77,0.05-1.54,0.13-2.28,0.25c-2.16,1.37-3.76,3.63-4.85,6.56c-1.21,3.23-1.81,7.24-1.87,11.75h9.01V32.72L21.77,32.72 L21.77,32.72L21.77,32.72z M14.52,34.48c-2.21,0.99-4.21,2.36-5.9,4.02c-3.39,3.32-5.59,7.8-5.92,12.78h7.63 c0.06-4.8,0.71-9.11,2.02-12.61C12.93,37.11,13.65,35.7,14.52,34.48L14.52,34.48L14.52,34.48L14.52,34.48z"/></g></svg>